<svg xmlns="http://www.w3.org/2000/svg" xmlns:svg="http://www.w3.org/2000/svg" xmlns:xlink="http://www.w3.org/1999/xlink" id="svg7854" width="48" height="48" version="1.0"><defs id="defs7856"><linearGradient id="linearGradient3671"><stop style="stop-color:#fff;stop-opacity:1" id="stop3673" offset="0"/><stop id="stop3691" offset=".475" style="stop-color:#fff;stop-opacity:1"/><stop style="stop-color:#fff;stop-opacity:0" id="stop3675" offset="1"/></linearGradient><linearGradient id="linearGradient3656"><stop style="stop-color:#fff;stop-opacity:1" id="stop3658" offset="0"/><stop style="stop-color:#fff;stop-opacity:0" id="stop3660" offset="1"/></linearGradient><linearGradient id="linearGradient5924" x1="-26.754" x2="-25" y1="11.566" y2="9.813" gradientUnits="userSpaceOnUse" xlink:href="#linearGradient3656"/><linearGradient id="linearGradient3520"><stop style="stop-color:#000;stop-opacity:.41295547" id="stop3522" offset="0"/><stop style="stop-color:#000;stop-opacity:0" id="stop3524" offset="1"/></linearGradient><linearGradient id="linearGradient5938" x1="-18.619" x2="-30.559" y1="10.211" y2="12.19" gradientTransform="matrix(0.5946829,0,0,0.5927814,-52.32735,61.274201)" gradientUnits="userSpaceOnUse" xlink:href="#linearGradient3520"/><radialGradient id="radialGradient5941" cx="-26.305" cy="10.108" r="7.042" fx="-26.305" fy="10.108" gradientTransform="matrix(0.2626416,-0.1805803,0.4842474,0.7055033,-66.98799,54.973505)" gradientUnits="userSpaceOnUse" xlink:href="#linearGradient3665"/><linearGradient id="linearGradient6552" x1="58.117" x2="60.414" y1="8.313" y2="7" gradientTransform="matrix(1.1428571,0,0,1,43.14286,60)" gradientUnits="userSpaceOnUse" xlink:href="#linearGradient6481"/><linearGradient id="linearGradient6481"><stop style="stop-color:#000;stop-opacity:1" id="stop6483" offset="0"/><stop style="stop-color:#000;stop-opacity:0" id="stop6485" offset="1"/></linearGradient><linearGradient id="linearGradient6550" x1="58.117" x2="60.414" y1="8.313" y2="7" gradientTransform="matrix(1.1428571,0,0,1,43.14286,60)" gradientUnits="userSpaceOnUse" xlink:href="#linearGradient6481"/><linearGradient id="linearGradient3741"><stop style="stop-color:#fff;stop-opacity:1" id="stop3743" offset="0"/><stop style="stop-color:#fff;stop-opacity:0" id="stop3745" offset="1"/></linearGradient><radialGradient id="radialGradient5918" cx="4" cy="5.3" r="17" fx="4" fy="5.3" gradientTransform="matrix(1.8860258,0,0,1.1764706,-3.5441033,-4.2352941)" gradientUnits="userSpaceOnUse" xlink:href="#linearGradient3741"/><linearGradient id="linearGradient3613"><stop style="stop-color:#888a85;stop-opacity:1" id="stop3615" offset="0"/><stop style="stop-color:#babdb6;stop-opacity:1" id="stop3617" offset="1"/></linearGradient><linearGradient id="linearGradient5947" x1="-47.5" x2="-62.75" y1="49.021" y2="-22.502" gradientTransform="matrix(0.6574416,0,0,0.6579498,-50.33039,60.190617)" gradientUnits="userSpaceOnUse" xlink:href="#linearGradient3613"/><linearGradient id="linearGradient3683"><stop id="stop3685" offset="0" style="stop-color:#f6f6f5;stop-opacity:1"/><stop id="stop3689" offset="1" style="stop-color:#d3d7cf;stop-opacity:1"/></linearGradient><radialGradient id="radialGradient5945" cx="-30.25" cy="35.357" r="18" fx="-30.25" fy="35.357" gradientTransform="matrix(2.6269718,0,0,1.2731569,9.2479,39.684019)" gradientUnits="userSpaceOnUse" xlink:href="#linearGradient3683"/><linearGradient id="linearGradient5912" x1="25.058" x2="25.058" y1="47.028" y2="39.999" gradientUnits="userSpaceOnUse" xlink:href="#linearGradient3702"/><radialGradient id="radialGradient5910" cx="4.993" cy="43.5" r="2.5" fx="4.993" fy="43.5" gradientTransform="matrix(2.003784,0,0,1.4,-20.01187,-104.4)" gradientUnits="userSpaceOnUse" xlink:href="#linearGradient3688"/><radialGradient id="radialGradient5908" cx="4.993" cy="43.5" r="2.5" fx="4.993" fy="43.5" gradientTransform="matrix(2.003784,0,0,1.4,27.98813,-17.4)" gradientUnits="userSpaceOnUse" xlink:href="#linearGradient3688"/><linearGradient id="linearGradient3702"><stop style="stop-color:black;stop-opacity:0" id="stop3704" offset="0"/><stop id="stop3710" offset=".5" style="stop-color:black;stop-opacity:1"/><stop style="stop-color:black;stop-opacity:0" id="stop3706" offset="1"/></linearGradient><linearGradient id="linearGradient5906" x1="25.058" x2="25.058" y1="47.028" y2="39.999" gradientUnits="userSpaceOnUse" xlink:href="#linearGradient3702"/><radialGradient id="radialGradient5904" cx="4.993" cy="43.5" r="2.5" fx="4.993" fy="43.5" gradientTransform="matrix(2.003784,0,0,1.4,-20.01187,-104.4)" gradientUnits="userSpaceOnUse" xlink:href="#linearGradient3688"/><linearGradient id="linearGradient3688"><stop style="stop-color:black;stop-opacity:1" id="stop3690" offset="0"/><stop style="stop-color:black;stop-opacity:0" id="stop3692" offset="1"/></linearGradient><radialGradient id="radialGradient5902" cx="4.993" cy="43.5" r="2.5" fx="4.993" fy="43.5" gradientTransform="matrix(2.003784,0,0,1.4,27.98813,-17.4)" gradientUnits="userSpaceOnUse" xlink:href="#linearGradient3688"/><linearGradient id="linearGradient5113"><stop id="stop5115" offset="0" style="stop-color:white;stop-opacity:1"/><stop id="stop5117" offset="1" style="stop-color:white;stop-opacity:0"/></linearGradient><linearGradient id="linearGradient5807" x1="58.749" x2="105.324" y1="2.048" y2="58.048" gradientTransform="matrix(0.6206223,0,0,0.6141576,-22.734446,-0.6310522)" gradientUnits="userSpaceOnUse" xlink:href="#linearGradient5113"/><linearGradient id="linearGradient3163"><stop style="stop-color:#a7cc5c;stop-opacity:1" id="stop3165" offset="0"/><stop style="stop-color:#789e2d;stop-opacity:1" id="stop3167" offset="1"/></linearGradient><linearGradient id="linearGradient3169" x1="17" x2="17" y1="7" y2="26" gradientTransform="matrix(1.000019,0,0,0.9999995,9.009453,-0.999992)" gradientUnits="userSpaceOnUse" xlink:href="#linearGradient3163"/><linearGradient id="linearGradient4375" x1="19.49" x2="19.387" y1="6.144" y2="8.1" gradientUnits="userSpaceOnUse" xlink:href="#linearGradient10997"/><linearGradient id="linearGradient4373" x1="19.49" x2="19.387" y1="6.144" y2="8.1" gradientUnits="userSpaceOnUse" xlink:href="#linearGradient10997"/><linearGradient id="linearGradient4369" x1="19.49" x2="19.387" y1="6.144" y2="8.1" gradientUnits="userSpaceOnUse" xlink:href="#linearGradient10997"/><linearGradient id="linearGradient4357" x1="19.49" x2="19.387" y1="6.144" y2="8.1" gradientUnits="userSpaceOnUse" xlink:href="#linearGradient10997"/><linearGradient id="linearGradient2772" x1="19.49" x2="19.387" y1="6.144" y2="8.1" gradientUnits="userSpaceOnUse" xlink:href="#linearGradient10997"/><linearGradient id="linearGradient3268"><stop style="stop-color:#3465a4;stop-opacity:1" id="stop3272" offset="0"/><stop id="stop3274" offset=".37" style="stop-color:#fff;stop-opacity:.5"/><stop style="stop-color:#729fcf;stop-opacity:1" id="stop3276" offset="1"/></linearGradient><linearGradient id="linearGradient3665"><stop style="stop-color:#888a85;stop-opacity:1" id="stop3667" offset="0"/><stop style="stop-color:#888a85;stop-opacity:0" id="stop3669" offset="1"/></linearGradient><linearGradient id="linearGradient10997"><stop style="stop-color:#fff;stop-opacity:1" id="stop10999" offset="0"/><stop style="stop-color:#fff;stop-opacity:0" id="stop11001" offset="1"/></linearGradient><linearGradient id="linearGradient11003" x1="19.49" x2="19.387" y1="6.144" y2="8.1" gradientUnits="userSpaceOnUse" xlink:href="#linearGradient10997"/><linearGradient id="linearGradient5048"><stop style="stop-color:black;stop-opacity:0" id="stop5050" offset="0"/><stop id="stop5056" offset=".5" style="stop-color:black;stop-opacity:1"/><stop style="stop-color:black;stop-opacity:0" id="stop5052" offset="1"/></linearGradient><linearGradient id="linearGradient6381"><stop style="stop-color:#fff;stop-opacity:1" id="stop6383" offset="0"/><stop style="stop-color:#fff;stop-opacity:0" id="stop6385" offset="1"/></linearGradient><linearGradient id="linearGradient6242"><stop style="stop-color:#d7b47f;stop-opacity:1" id="stop6244" offset="0"/><stop style="stop-color:#f4dbb3;stop-opacity:1" id="stop6246" offset="1"/></linearGradient><linearGradient id="linearGradient6234"><stop style="stop-color:#fff;stop-opacity:1" id="stop6236" offset="0"/><stop style="stop-color:#fff;stop-opacity:0" id="stop6238" offset="1"/></linearGradient><linearGradient id="linearGradient6222"><stop style="stop-color:#000;stop-opacity:1" id="stop6224" offset="0"/><stop style="stop-color:#000;stop-opacity:0" id="stop6226" offset="1"/></linearGradient><linearGradient id="linearGradient6210"><stop id="stop6212" offset="0" style="stop-color:#f9ead2;stop-opacity:1"/><stop id="stop6214" offset="1" style="stop-color:#e4a546;stop-opacity:1"/></linearGradient><linearGradient id="linearGradient6204"><stop id="stop6206" offset="0" style="stop-color:#120c02;stop-opacity:1"/><stop id="stop6208" offset="1" style="stop-color:#b97a1b;stop-opacity:1"/></linearGradient><linearGradient id="linearGradient6190"><stop style="stop-color:#a0670c;stop-opacity:1" id="stop6192" offset="0"/><stop style="stop-color:#e6c99d;stop-opacity:1" id="stop6194" offset="1"/></linearGradient><linearGradient id="linearGradient4210"><stop style="stop-color:#eaba6f;stop-opacity:1" id="stop4212" offset="0"/><stop style="stop-color:#b97a1b;stop-opacity:1" id="stop4214" offset="1"/></linearGradient><linearGradient id="linearGradient4879" x1="24.99" x2="23.452" y1="49.424" y2="14.383" gradientTransform="matrix(0.7096774,0,0,0.2991034,10.629488,16.176929)" gradientUnits="userSpaceOnUse" xlink:href="#linearGradient6204"/><linearGradient id="aigrd1" x1="14.997" x2="32.511" y1="11.188" y2="34.307" gradientUnits="userSpaceOnUse"><stop id="stop3034" offset="0" style="stop-color:#ebebeb"/><stop id="stop3036" offset=".5" style="stop-color:#fff"/><stop id="stop3038" offset="1" style="stop-color:#ebebeb"/></linearGradient><linearGradient id="aigrd2" x1="12.274" x2="35.391" y1="32.416" y2="14.203" gradientUnits="userSpaceOnUse"><stop id="stop3043" offset="0" style="stop-color:#fbfbfb"/><stop id="stop3045" offset=".5" style="stop-color:#b6b6b6"/><stop id="stop3047" offset="1" style="stop-color:#e4e4e4"/></linearGradient><linearGradient id="linearGradient6198" x1="6.675" x2="8" y1="10.141" y2="10.654" gradientTransform="matrix(0.7002263,0,0,0.7201375,14.325115,18.126755)" gradientUnits="userSpaceOnUse" xlink:href="#linearGradient6190"/><linearGradient id="linearGradient6200" x1="41.448" x2="37.308" y1="9.345" y2="10.742" gradientTransform="matrix(0.7002263,0,0,0.7218186,14.325115,18.126621)" gradientUnits="userSpaceOnUse" xlink:href="#linearGradient6190"/><linearGradient id="linearGradient6216" x1="37.308" x2="43.588" y1="20.232" y2="23.422" gradientTransform="matrix(0.7002263,0,0,0.9599488,14.325115,6.4588498)" gradientUnits="userSpaceOnUse" xlink:href="#linearGradient6210"/><linearGradient id="linearGradient6218" x1="8" x2="1.827" y1="16.527" y2="23.5" gradientTransform="matrix(0.7002263,0,0,0.957713,14.325115,6.4861578)" gradientUnits="userSpaceOnUse" xlink:href="#linearGradient6210"/><linearGradient id="linearGradient6228" x1="24.5" x2="24.5" y1="17.813" y2="26.188" gradientTransform="matrix(0.7002263,0,0,0.699999,14.325115,18.459039)" gradientUnits="userSpaceOnUse" xlink:href="#linearGradient6222"/><linearGradient id="linearGradient6232" x1="24.99" x2="23.452" y1="49.424" y2="14.383" gradientTransform="matrix(0.7072142,0,0,0.8394801,10.736635,11.571245)" gradientUnits="userSpaceOnUse" xlink:href="#linearGradient4210"/><linearGradient id="linearGradient6240" x1="29.953" x2="27.596" y1="32.242" y2="14.148" gradientUnits="userSpaceOnUse" xlink:href="#linearGradient6234"/><linearGradient id="linearGradient6252" x1="17.327" x2="17.702" y1="24.164" y2="27.945" gradientTransform="matrix(0.7002263,0,0,0.885443,14.325115,8.0882118)" gradientUnits="userSpaceOnUse" xlink:href="#linearGradient4210"/><linearGradient id="linearGradient6254" x1="24.883" x2="25.148" y1="14.295" y2="10.942" gradientTransform="matrix(0.7002263,0,0,0.6657952,14.325115,18.850398)" gradientUnits="userSpaceOnUse" xlink:href="#linearGradient6190"/><filter id="filter6290" width="1.222" height="2.014" x="-.111" y="-.507"><feGaussianBlur id="feGaussianBlur6292" stdDeviation="2.029"/></filter><linearGradient id="linearGradient6988" x1="5.579" x2="27.621" y1="3.274" y2="3.274" gradientTransform="matrix(1,0,0,0.8333333,14.000455,21.2492)" gradientUnits="userSpaceOnUse" xlink:href="#linearGradient6242"/><linearGradient id="linearGradient6387" x1="23.158" x2="23.158" y1="11.361" y2="5.528" gradientUnits="userSpaceOnUse" xlink:href="#linearGradient6381"/><radialGradient id="radialGradient6972" cx="4.993" cy="43.5" r="2.5" fx="4.993" fy="43.5" gradientTransform="matrix(2.003784,0,0,1.4,27.98813,-17.4)" gradientUnits="userSpaceOnUse" xlink:href="#linearGradient3688"/><radialGradient id="radialGradient6974" cx="4.993" cy="43.5" r="2.5" fx="4.993" fy="43.5" gradientTransform="matrix(2.003784,0,0,1.4,-20.01187,-104.4)" gradientUnits="userSpaceOnUse" xlink:href="#linearGradient3688"/><linearGradient id="linearGradient6976" x1="25.058" x2="25.058" y1="47.028" y2="39.999" gradientUnits="userSpaceOnUse" xlink:href="#linearGradient3702"/><radialGradient id="radialGradient6978" cx="4.993" cy="43.5" r="2.5" fx="4.993" fy="43.5" gradientTransform="matrix(2.003784,0,0,1.4,27.98813,-17.4)" gradientUnits="userSpaceOnUse" xlink:href="#linearGradient3688"/><radialGradient id="radialGradient6980" cx="4.993" cy="43.5" r="2.5" fx="4.993" fy="43.5" gradientTransform="matrix(2.003784,0,0,1.4,-20.01187,-104.4)" gradientUnits="userSpaceOnUse" xlink:href="#linearGradient3688"/><linearGradient id="linearGradient6982" x1="25.058" x2="25.058" y1="47.028" y2="39.999" gradientUnits="userSpaceOnUse" xlink:href="#linearGradient3702"/><radialGradient id="radialGradient6984" cx="-30.25" cy="35.357" r="18" fx="-30.25" fy="35.357" gradientTransform="matrix(2.6269718,0,0,1.2731569,9.2479,39.684019)" gradientUnits="userSpaceOnUse" xlink:href="#linearGradient3683"/><linearGradient id="linearGradient6986" x1="-47.5" x2="-62.75" y1="49.021" y2="-22.502" gradientTransform="matrix(0.6574416,0,0,0.6579498,-50.33039,60.190617)" gradientUnits="userSpaceOnUse" xlink:href="#linearGradient3613"/><radialGradient id="radialGradient6988" cx="4" cy="5.3" r="17" fx="4" fy="5.3" gradientTransform="matrix(1.8860258,0,0,1.1764706,-3.5441033,-4.2352941)" gradientUnits="userSpaceOnUse" xlink:href="#linearGradient3741"/><linearGradient id="linearGradient6990" x1="58.117" x2="60.414" y1="8.313" y2="7" gradientTransform="matrix(1.1428571,0,0,1,43.14286,60)" gradientUnits="userSpaceOnUse" xlink:href="#linearGradient6481"/><linearGradient id="linearGradient6992" x1="58.117" x2="60.414" y1="8.313" y2="7" gradientTransform="matrix(1.1428571,0,0,1,43.14286,60)" gradientUnits="userSpaceOnUse" xlink:href="#linearGradient6481"/><radialGradient id="radialGradient6994" cx="-26.305" cy="10.108" r="7.042" fx="-26.305" fy="10.108" gradientTransform="matrix(0.2626416,-0.1805803,0.4842474,0.7055033,-66.98799,54.973505)" gradientUnits="userSpaceOnUse" xlink:href="#linearGradient3665"/><linearGradient id="linearGradient6996" x1="-18.619" x2="-30.559" y1="10.211" y2="12.19" gradientTransform="matrix(0.5946829,0,0,0.5927814,-52.32735,61.274201)" gradientUnits="userSpaceOnUse" xlink:href="#linearGradient3520"/><linearGradient id="linearGradient6998" x1="-26.754" x2="-25" y1="11.566" y2="9.813" gradientUnits="userSpaceOnUse" xlink:href="#linearGradient3656"/></defs><metadata id="metadata7859"/><g id="layer1"><g style="display:inline" id="g14240" transform="translate(88,-60)"><rect id="rect5573" width="32" height="32" x="-90" y="60" style="opacity:0;fill:#fff;fill-opacity:1;stroke:none;stroke-width:1;stroke-miterlimit:4;stroke-dasharray:none;stroke-opacity:1"/><rect id="rect5575" width="32" height="32" x="-90" y="60" style="opacity:0;fill:#000;fill-opacity:1;stroke:none;stroke-width:1;stroke-miterlimit:4;stroke-dasharray:none;display:inline"/><g id="g5579" transform="matrix(0.6976188,0,0,0.5925926,-90.790476,63.814825)" style="opacity:.65587045;display:inline"><g style="opacity:.4" id="g5581" transform="matrix(1.052632,0,0,1.285713,-1.263158,-13.42854)"><rect style="opacity:1;fill:url(#radialGradient5902);fill-opacity:1;stroke:none;stroke-width:1;stroke-linecap:round;stroke-linejoin:miter;stroke-miterlimit:4;stroke-dasharray:none;stroke-opacity:1" id="rect5583" width="5" height="7" x="38" y="40"/><rect style="opacity:1;fill:url(#radialGradient5904);fill-opacity:1;stroke:none;stroke-width:1;stroke-linecap:round;stroke-linejoin:miter;stroke-miterlimit:4;stroke-dasharray:none;stroke-opacity:1" id="rect5585" width="5" height="7" x="-10" y="-47" transform="scale(-1,-1)"/><rect style="opacity:1;fill:url(#linearGradient5906);fill-opacity:1;stroke:none;stroke-width:1;stroke-linecap:round;stroke-linejoin:miter;stroke-miterlimit:4;stroke-dasharray:none;stroke-opacity:1" id="rect5587" width="28" height="7" x="10" y="40"/></g></g><g id="g5589" transform="matrix(0.6365644,0,0,0.3703708,-89.32517,73.259249)" style="display:inline"><g style="opacity:.4" id="g5591" transform="matrix(1.052632,0,0,1.285713,-1.263158,-13.42854)"><rect style="opacity:1;fill:url(#radialGradient5908);fill-opacity:1;stroke:none;stroke-width:1;stroke-linecap:round;stroke-linejoin:miter;stroke-miterlimit:4;stroke-dasharray:none;stroke-opacity:1" id="rect5593" width="5" height="7" x="38" y="40"/><rect style="opacity:1;fill:url(#radialGradient5910);fill-opacity:1;stroke:none;stroke-width:1;stroke-linecap:round;stroke-linejoin:miter;stroke-miterlimit:4;stroke-dasharray:none;stroke-opacity:1" id="rect5595" width="5" height="7" x="-10" y="-47" transform="scale(-1,-1)"/><rect style="opacity:1;fill:url(#linearGradient5912);fill-opacity:1;stroke:none;stroke-width:1;stroke-linecap:round;stroke-linejoin:miter;stroke-miterlimit:4;stroke-dasharray:none;stroke-opacity:1" id="rect5597" width="28" height="7" x="10" y="40"/></g></g><path id="path5599" d="M -84.17295,62.493441 C -84.17295,62.493441 -72.68341,62.493441 -71.69724,62.493441 C -69.14831,62.541434 -67.42387,64.138316 -65.78027,65.78319 C -64.13666,67.428064 -62.75099,69.239153 -62.49306,71.704738 C -62.49306,72.691663 -62.49306,88.137785 -62.49306,88.137785 C -62.49306,88.875489 -63.08649,89.469382 -63.82363,89.469382 L -84.17295,89.469382 C -84.91008,89.469382 -85.50352,88.875489 -85.50352,88.137785 L -85.50352,63.825038 C -85.50352,63.087333 -84.91008,62.493441 -84.17295,62.493441 z" style="fill:url(#radialGradient5945);fill-opacity:1;stroke:url(#linearGradient5947);stroke-width:.99999994;stroke-miterlimit:4;display:inline"/><path id="path5601" d="M 8.53125,4.28125 C 7.8347823,4.28125 7.28125,4.8347822 7.28125,5.53125 L 7.28125,42.46875 C 7.28125,43.165218 7.8347822,43.71875 8.53125,43.71875 L 39.46875,43.71875 C 40.165217,43.71875 40.71875,43.165216 40.71875,42.46875 C 40.71875,42.46875 40.71875,19 40.71875,17.5 C 40.71875,16.174439 40.206224,13.331224 38.4375,11.5625 C 36.4375,9.5625 35.4375,8.5625 33.4375,6.5625 C 31.668776,4.7937758 28.825561,4.28125 27.5,4.28125 C 26,4.28125 8.53125,4.28125 8.53125,4.28125 z" transform="matrix(0.6574416,0,0,0.6579498,-89.77689,60.190617)" style="opacity:.68016196;fill:url(#radialGradient5918);fill-opacity:1;stroke:none;stroke-width:1;stroke-miterlimit:4;display:inline"/><g style="opacity:.15" id="g6524" transform="translate(-180,0)"><rect id="rect5609" width="16" height="1" x="98" y="69" rx=".571" ry=".5" style="opacity:1;fill:url(#linearGradient6550);fill-opacity:1;stroke:none;stroke-width:1;stroke-linecap:round;stroke-linejoin:miter;stroke-miterlimit:4;stroke-dasharray:none;stroke-dashoffset:1.20000057;stroke-opacity:1;display:inline"/><rect id="rect5611" width="16" height="1" x="98" y="71" rx=".557" ry=".5" style="opacity:1;fill:#000;fill-opacity:1;stroke:none;stroke-width:1;stroke-linecap:round;stroke-linejoin:miter;stroke-miterlimit:4;stroke-dasharray:none;stroke-dashoffset:1.20000057;stroke-opacity:1;display:inline"/><rect id="rect5613" width="16" height="1" x="98" y="73" rx=".571" ry=".5" style="opacity:1;fill:#000;fill-opacity:1;stroke:none;stroke-width:1;stroke-linecap:round;stroke-linejoin:miter;stroke-miterlimit:4;stroke-dasharray:none;stroke-dashoffset:1.20000057;stroke-opacity:1;display:inline"/><rect id="rect5615" width="16" height="1" x="98" y="75" rx=".571" ry=".5" style="opacity:1;fill:#000;fill-opacity:1;stroke:none;stroke-width:1;stroke-linecap:round;stroke-linejoin:miter;stroke-miterlimit:4;stroke-dasharray:none;stroke-dashoffset:1.20000057;stroke-opacity:1;display:inline"/><rect id="rect5617" width="16" height="1" x="98" y="77" rx=".571" ry=".5" style="opacity:1;fill:#000;fill-opacity:1;stroke:none;stroke-width:1;stroke-linecap:round;stroke-linejoin:miter;stroke-miterlimit:4;stroke-dasharray:none;stroke-dashoffset:1.20000057;stroke-opacity:1;display:inline"/><rect id="rect5619" width="16" height="1" x="98" y="79" rx=".571" ry=".5" style="opacity:1;fill:#000;fill-opacity:1;stroke:none;stroke-width:1;stroke-linecap:round;stroke-linejoin:miter;stroke-miterlimit:4;stroke-dasharray:none;stroke-dashoffset:1.20000057;stroke-opacity:1;display:inline"/><rect id="rect5621" width="16" height="1" x="98" y="81" rx=".571" ry=".5" style="opacity:1;fill:#000;fill-opacity:1;stroke:none;stroke-width:1;stroke-linecap:round;stroke-linejoin:miter;stroke-miterlimit:4;stroke-dasharray:none;stroke-dashoffset:1.20000057;stroke-opacity:1;display:inline"/><rect id="rect5623" width="9.143" height="1" x="98" y="83" rx=".571" ry=".5" style="opacity:1;fill:#000;fill-opacity:1;stroke:none;stroke-width:1;stroke-linecap:round;stroke-linejoin:miter;stroke-miterlimit:4;stroke-dasharray:none;stroke-dashoffset:1.20000057;stroke-opacity:1;display:inline"/><rect id="rect5625" width="15" height="1" x="98" y="67" rx=".557" ry=".5" style="opacity:1;fill:url(#linearGradient6552);fill-opacity:1;stroke:none;stroke-width:1;stroke-linecap:round;stroke-linejoin:miter;stroke-miterlimit:4;stroke-dasharray:none;stroke-dashoffset:1.20000057;stroke-opacity:1;display:inline"/></g><path id="path5603" d="M -71.70464,63 C -72.60017,63 -71.73177,63.320785 -70.83822,63.725993 C -69.94467,64.131202 -68.47346,65.638136 -69,68 C -64.43068,67.292893 -63.8518,70.177572 -63.64491,70.925424 C -63.43802,71.673275 -63.00013,72.608204 -63.00013,71.711916 C -62.98186,69.256072 -64.8348,67.561365 -66.12328,66.125803 C -67.41175,64.690242 -69.34876,63.307667 -71.70464,63 z" style="fill:url(#radialGradient5941);fill-opacity:1;stroke:none;stroke-width:1;stroke-miterlimit:4;display:inline"/><path id="path5605" d="M -70.99482,63.654589 C -70.40014,63.654589 -70,67.5 -70,70 C -67,70 -64.29634,70.451814 -64,71 C -64.20689,70.252148 -64.53856,67.226602 -69,68 C -68.44248,65.499203 -70.21299,63.892295 -70.99482,63.654589 z" style="opacity:.87854249;fill:url(#linearGradient5938);fill-opacity:1;stroke:none;stroke-width:1;stroke-miterlimit:4;display:inline"/><path id="path5627" d="M -51.46875,5.0625 C -51.740468,5.0625 -51.9375,5.2595315 -51.9375,5.53125 L -51.9375,42.46875 C -51.9375,42.740467 -51.740467,42.9375 -51.46875,42.9375 L -20.53125,42.9375 C -20.259533,42.9375 -20.0625,42.740467 -20.0625,42.46875 C -20.0625,42.46875 -20.0625,19 -20.0625,17.5 C -20.0625,16.348878 -20.587552,13.662448 -22.125,12.125 C -24.125,10.125 -25.125,9.125 -27.125,7.125 C -28.662448,5.5875517 -31.348878,5.0625 -32.5,5.0625 C -34,5.0625 -51.46875,5.0625 -51.46875,5.0625 z" transform="matrix(0.6574416,0,0,0.6579498,-50.33039,60.190617)" style="fill:none;fill-opacity:1;stroke:url(#linearGradient5924);stroke-width:1.52046025;stroke-miterlimit:4;display:inline"/></g><rect style="opacity:.5;fill:#000;fill-opacity:1;fill-rule:nonzero;stroke:none;stroke-width:1;stroke-linecap:butt;stroke-linejoin:round;marker:none;marker-start:none;marker-mid:none;marker-end:none;stroke-miterlimit:4;stroke-dasharray:none;stroke-dashoffset:0;stroke-opacity:1;visibility:visible;display:block;overflow:visible;filter:url(#filter6290);enable-background:accumulate" id="rect6264" width="36.5" height="8" x="5" y="31" rx="5.712" ry="5.714" transform="matrix(0.7002263,0,0,0.699999,14.325115,18.459039)"/><rect style="opacity:1;fill:url(#linearGradient6232);fill-opacity:1;fill-rule:nonzero;stroke:#a0670c;stroke-width:1.00000083;stroke-linecap:butt;stroke-linejoin:miter;marker:none;marker-start:none;marker-mid:none;marker-end:none;stroke-miterlimit:4;stroke-dasharray:none;stroke-dashoffset:0;stroke-opacity:1;visibility:visible;display:block;overflow:visible;enable-background:accumulate" id="rect4873" width="21.924" height="17.99" x="19.577" y="26.509" rx="1.914" ry="1.914"/><path style="opacity:1;fill:url(#linearGradient6216);fill-opacity:1;fill-rule:nonzero;stroke:url(#linearGradient6200);stroke-width:1;stroke-linecap:butt;stroke-linejoin:round;marker:none;marker-start:none;marker-mid:none;marker-end:none;stroke-miterlimit:4;stroke-dasharray:none;stroke-dashoffset:0;stroke-opacity:1;visibility:visible;display:block;overflow:visible;enable-background:accumulate" id="path4881" d="M 41.283828,26.413383 L 45.52584,29.123409 L 44.866268,24.283641 L 41.170663,21.4992 L 41.283828,26.413383 z"/><g style="display:inline" id="g6916" transform="translate(91,-57)"><rect id="rect6918" width="32" height="32" x="-90" y="60" style="opacity:0;fill:#fff;fill-opacity:1;stroke:none;stroke-width:1;stroke-miterlimit:4;stroke-dasharray:none;stroke-opacity:1"/><rect id="rect6920" width="32" height="32" x="-90" y="60" style="opacity:0;fill:#000;fill-opacity:1;stroke:none;stroke-width:1;stroke-miterlimit:4;stroke-dasharray:none;display:inline"/><g id="g6922" transform="matrix(0.6976188,0,0,0.5925926,-90.790476,63.814825)" style="opacity:.65587045;display:inline"><g style="opacity:.4" id="g6924" transform="matrix(1.052632,0,0,1.285713,-1.263158,-13.42854)"><rect style="opacity:1;fill:url(#radialGradient6972);fill-opacity:1;stroke:none;stroke-width:1;stroke-linecap:round;stroke-linejoin:miter;stroke-miterlimit:4;stroke-dasharray:none;stroke-opacity:1" id="rect6926" width="5" height="7" x="38" y="40"/><rect style="opacity:1;fill:url(#radialGradient6974);fill-opacity:1;stroke:none;stroke-width:1;stroke-linecap:round;stroke-linejoin:miter;stroke-miterlimit:4;stroke-dasharray:none;stroke-opacity:1" id="rect6928" width="5" height="7" x="-10" y="-47" transform="scale(-1,-1)"/><rect style="opacity:1;fill:url(#linearGradient6976);fill-opacity:1;stroke:none;stroke-width:1;stroke-linecap:round;stroke-linejoin:miter;stroke-miterlimit:4;stroke-dasharray:none;stroke-opacity:1" id="rect6930" width="28" height="7" x="10" y="40"/></g></g><g id="g6932" transform="matrix(0.6365644,0,0,0.3703708,-89.32517,73.259249)" style="display:inline"><g style="opacity:.4" id="g6934" transform="matrix(1.052632,0,0,1.285713,-1.263158,-13.42854)"><rect style="opacity:1;fill:url(#radialGradient6978);fill-opacity:1;stroke:none;stroke-width:1;stroke-linecap:round;stroke-linejoin:miter;stroke-miterlimit:4;stroke-dasharray:none;stroke-opacity:1" id="rect6936" width="5" height="7" x="38" y="40"/><rect style="opacity:1;fill:url(#radialGradient6980);fill-opacity:1;stroke:none;stroke-width:1;stroke-linecap:round;stroke-linejoin:miter;stroke-miterlimit:4;stroke-dasharray:none;stroke-opacity:1" id="rect6938" width="5" height="7" x="-10" y="-47" transform="scale(-1,-1)"/><rect style="opacity:1;fill:url(#linearGradient6982);fill-opacity:1;stroke:none;stroke-width:1;stroke-linecap:round;stroke-linejoin:miter;stroke-miterlimit:4;stroke-dasharray:none;stroke-opacity:1" id="rect6940" width="28" height="7" x="10" y="40"/></g></g><path id="path6942" d="M -84.17295,62.493441 C -84.17295,62.493441 -72.68341,62.493441 -71.69724,62.493441 C -69.14831,62.541434 -67.42387,64.138316 -65.78027,65.78319 C -64.13666,67.428064 -62.75099,69.239153 -62.49306,71.704738 C -62.49306,72.691663 -62.49306,88.137785 -62.49306,88.137785 C -62.49306,88.875489 -63.08649,89.469382 -63.82363,89.469382 L -84.17295,89.469382 C -84.91008,89.469382 -85.50352,88.875489 -85.50352,88.137785 L -85.50352,63.825038 C -85.50352,63.087333 -84.91008,62.493441 -84.17295,62.493441 z" style="fill:url(#radialGradient6984);fill-opacity:1;stroke:url(#linearGradient6986);stroke-width:.99999994;stroke-miterlimit:4;display:inline"/><path id="path6944" d="M 8.53125,4.28125 C 7.8347823,4.28125 7.28125,4.8347822 7.28125,5.53125 L 7.28125,42.46875 C 7.28125,43.165218 7.8347822,43.71875 8.53125,43.71875 L 39.46875,43.71875 C 40.165217,43.71875 40.71875,43.165216 40.71875,42.46875 C 40.71875,42.46875 40.71875,19 40.71875,17.5 C 40.71875,16.174439 40.206224,13.331224 38.4375,11.5625 C 36.4375,9.5625 35.4375,8.5625 33.4375,6.5625 C 31.668776,4.7937758 28.825561,4.28125 27.5,4.28125 C 26,4.28125 8.53125,4.28125 8.53125,4.28125 z" transform="matrix(0.6574416,0,0,0.6579498,-89.77689,60.190617)" style="opacity:.68016196;fill:url(#radialGradient6988);fill-opacity:1;stroke:none;stroke-width:1;stroke-miterlimit:4;display:inline"/><g style="opacity:.15" id="g6946" transform="translate(-180,0)"><rect id="rect6948" width="16" height="1" x="98" y="69" rx=".571" ry=".5" style="opacity:1;fill:url(#linearGradient6990);fill-opacity:1;stroke:none;stroke-width:1;stroke-linecap:round;stroke-linejoin:miter;stroke-miterlimit:4;stroke-dasharray:none;stroke-dashoffset:1.20000057;stroke-opacity:1;display:inline"/><rect id="rect6950" width="16" height="1" x="98" y="71" rx=".557" ry=".5" style="opacity:1;fill:#000;fill-opacity:1;stroke:none;stroke-width:1;stroke-linecap:round;stroke-linejoin:miter;stroke-miterlimit:4;stroke-dasharray:none;stroke-dashoffset:1.20000057;stroke-opacity:1;display:inline"/><rect id="rect6952" width="16" height="1" x="98" y="73" rx=".571" ry=".5" style="opacity:1;fill:#000;fill-opacity:1;stroke:none;stroke-width:1;stroke-linecap:round;stroke-linejoin:miter;stroke-miterlimit:4;stroke-dasharray:none;stroke-dashoffset:1.20000057;stroke-opacity:1;display:inline"/><rect id="rect6954" width="16" height="1" x="98" y="75" rx=".571" ry=".5" style="opacity:1;fill:#000;fill-opacity:1;stroke:none;stroke-width:1;stroke-linecap:round;stroke-linejoin:miter;stroke-miterlimit:4;stroke-dasharray:none;stroke-dashoffset:1.20000057;stroke-opacity:1;display:inline"/><rect id="rect6956" width="16" height="1" x="98" y="77" rx=".571" ry=".5" style="opacity:1;fill:#000;fill-opacity:1;stroke:none;stroke-width:1;stroke-linecap:round;stroke-linejoin:miter;stroke-miterlimit:4;stroke-dasharray:none;stroke-dashoffset:1.20000057;stroke-opacity:1;display:inline"/><rect id="rect6958" width="16" height="1" x="98" y="79" rx=".571" ry=".5" style="opacity:1;fill:#000;fill-opacity:1;stroke:none;stroke-width:1;stroke-linecap:round;stroke-linejoin:miter;stroke-miterlimit:4;stroke-dasharray:none;stroke-dashoffset:1.20000057;stroke-opacity:1;display:inline"/><rect id="rect6960" width="16" height="1" x="98" y="81" rx=".571" ry=".5" style="opacity:1;fill:#000;fill-opacity:1;stroke:none;stroke-width:1;stroke-linecap:round;stroke-linejoin:miter;stroke-miterlimit:4;stroke-dasharray:none;stroke-dashoffset:1.20000057;stroke-opacity:1;display:inline"/><rect id="rect6962" width="9.143" height="1" x="98" y="83" rx=".571" ry=".5" style="opacity:1;fill:#000;fill-opacity:1;stroke:none;stroke-width:1;stroke-linecap:round;stroke-linejoin:miter;stroke-miterlimit:4;stroke-dasharray:none;stroke-dashoffset:1.20000057;stroke-opacity:1;display:inline"/><rect id="rect6964" width="15" height="1" x="98" y="67" rx=".557" ry=".5" style="opacity:1;fill:url(#linearGradient6992);fill-opacity:1;stroke:none;stroke-width:1;stroke-linecap:round;stroke-linejoin:miter;stroke-miterlimit:4;stroke-dasharray:none;stroke-dashoffset:1.20000057;stroke-opacity:1;display:inline"/></g><path id="path6966" d="M -71.70464,63 C -72.60017,63 -71.73177,63.320785 -70.83822,63.725993 C -69.94467,64.131202 -68.47346,65.638136 -69,68 C -64.43068,67.292893 -63.8518,70.177572 -63.64491,70.925424 C -63.43802,71.673275 -63.00013,72.608204 -63.00013,71.711916 C -62.98186,69.256072 -64.8348,67.561365 -66.12328,66.125803 C -67.41175,64.690242 -69.34876,63.307667 -71.70464,63 z" style="fill:url(#radialGradient6994);fill-opacity:1;stroke:none;stroke-width:1;stroke-miterlimit:4;display:inline"/><path id="path6968" d="M -70.99482,63.654589 C -70.40014,63.654589 -70,67.5 -70,70 C -67,70 -64.29634,70.451814 -64,71 C -64.20689,70.252148 -64.53856,67.226602 -69,68 C -68.44248,65.499203 -70.21299,63.892295 -70.99482,63.654589 z" style="opacity:.87854249;fill:url(#linearGradient6996);fill-opacity:1;stroke:none;stroke-width:1;stroke-miterlimit:4;display:inline"/><path id="path6970" d="M -51.46875,5.0625 C -51.740468,5.0625 -51.9375,5.2595315 -51.9375,5.53125 L -51.9375,42.46875 C -51.9375,42.740467 -51.740467,42.9375 -51.46875,42.9375 L -20.53125,42.9375 C -20.259533,42.9375 -20.0625,42.740467 -20.0625,42.46875 C -20.0625,42.46875 -20.0625,19 -20.0625,17.5 C -20.0625,16.348878 -20.587552,13.662448 -22.125,12.125 C -24.125,10.125 -25.125,9.125 -27.125,7.125 C -28.662448,5.5875517 -31.348878,5.0625 -32.5,5.0625 C -34,5.0625 -51.46875,5.0625 -51.46875,5.0625 z" transform="matrix(0.6574416,0,0,0.6579498,-50.33039,60.190617)" style="fill:none;fill-opacity:1;stroke:url(#linearGradient6998);stroke-width:1.52046025;stroke-miterlimit:4;display:inline"/></g><rect id="rect4877" width="22" height="6.41" x="19.5" y="21.499" rx=".552" ry=".554" style="opacity:1;fill:url(#linearGradient4879);fill-opacity:1;fill-rule:nonzero;stroke:#a0670c;stroke-width:1.00000083;stroke-linecap:butt;stroke-linejoin:miter;marker:none;marker-start:none;marker-mid:none;marker-end:none;stroke-miterlimit:4;stroke-dasharray:none;stroke-dashoffset:0;stroke-opacity:1;visibility:visible;display:block;overflow:visible;enable-background:accumulate"/><rect style="opacity:.55294118;fill:url(#linearGradient6228);fill-opacity:1;fill-rule:nonzero;stroke:none;stroke-width:1.00000083;stroke-linecap:butt;stroke-linejoin:miter;marker:none;marker-start:none;marker-mid:none;marker-end:none;stroke-miterlimit:4;stroke-dasharray:none;stroke-dashoffset:0;stroke-opacity:1;visibility:visible;display:block;overflow:visible;enable-background:accumulate" id="rect6220" width="21.182" height="8.137" x="19.752" y="29.134"/><path style="opacity:.47647059;fill:none;fill-opacity:1;fill-rule:nonzero;stroke:url(#linearGradient6240);stroke-width:1.00524569;stroke-linecap:butt;stroke-linejoin:miter;marker:none;marker-start:none;marker-mid:none;marker-end:none;stroke-miterlimit:4;stroke-dasharray:none;stroke-dashoffset:0;stroke-opacity:1;visibility:visible;display:block;overflow:visible;enable-background:accumulate" id="path6230" d="M 22.5,27.5625 C 22.022028,27.5625 21.625,27.959528 21.625,28.4375 L 21.625,42.59375 C 21.625,43.071722 22.001273,43.4375 22.5,43.4375 L 40.59375,43.4375 C 41.092479,43.4375 41.4375,43.09248 41.4375,42.59375 L 41.4375,28.4375 C 41.4375,27.938771 41.071725,27.5625 40.59375,27.5625 L 22.5,27.5625 z" transform="matrix(1.0094637,0,0,0.9803149,-0.187697,0.5238683)" xlink:href="#rect4873"/><path style="opacity:1;fill:url(#linearGradient6218);fill-opacity:1;fill-rule:nonzero;stroke:url(#linearGradient6198);stroke-width:1.00000083;stroke-linecap:butt;stroke-linejoin:round;marker:none;marker-start:none;marker-mid:none;marker-end:none;stroke-miterlimit:4;stroke-dasharray:none;stroke-dashoffset:0;stroke-opacity:1;visibility:visible;display:block;overflow:visible;enable-background:accumulate" id="path4883" d="M 19.620577,21.4992 L 19.576813,26.408336 L 15.478,30.009023 L 16.096919,24.353385 L 19.620577,21.4992 z"/><rect style="opacity:.61363639;fill:none;fill-opacity:1;fill-rule:evenodd;stroke:url(#linearGradient6988);stroke-width:.99999988;stroke-linecap:round;stroke-linejoin:round;stroke-miterlimit:4;stroke-dasharray:none;stroke-dashoffset:.69999992;stroke-opacity:1" id="rect6003" width="22" height="5" x="19.5" y="22.499" rx=".463" ry=".463"/><path style="opacity:1;fill:url(#linearGradient6252);fill-opacity:1;fill-rule:nonzero;stroke:url(#linearGradient6254);stroke-width:1.00000083;stroke-linecap:butt;stroke-linejoin:miter;marker:none;marker-start:none;marker-mid:none;marker-end:none;stroke-miterlimit:4;stroke-dasharray:none;stroke-dashoffset:0;stroke-opacity:1;visibility:visible;display:block;overflow:visible;enable-background:accumulate" id="path4885" d="M 19.617466,26.468387 L 18.217014,32.4992 L 42.663043,32.4992 L 41.330703,26.488581 L 19.617466,26.468387 z"/><path style="opacity:.3;fill:none;fill-opacity:1;fill-rule:nonzero;stroke:url(#linearGradient6387);stroke-width:1.00000083;stroke-linecap:butt;stroke-linejoin:miter;marker:none;marker-start:none;marker-mid:none;marker-end:none;stroke-miterlimit:4;stroke-dasharray:none;stroke-dashoffset:0;stroke-opacity:1;visibility:visible;display:block;overflow:visible;enable-background:accumulate" id="path5406" d="M 6.4375,7.46875 L 5.5,11.5 L 27.375,11.5 L 26.5,7.5 L 6.4375,7.46875 z" transform="translate(14.000455,19.9992)"/><path style="fill:url(#linearGradient3169);fill-opacity:1;fill-rule:nonzero;stroke:#42770c;stroke-width:1.00000882;stroke-linecap:butt;stroke-linejoin:miter;marker:none;marker-start:none;marker-mid:none;marker-end:none;stroke-miterlimit:4;stroke-dasharray:none;stroke-dashoffset:0;stroke-opacity:1;visibility:visible;display:inline;overflow:visible" id="path5792" d="M 37.509995,16.50775 L 30.075144,25.499996 L 22.677553,16.50775 L 26.440795,16.50775 C 27.705529,13.138501 25.203431,11.149553 22.195974,11.000003 C 19.533553,10.867602 17.042086,12.434492 16.009586,15 C 15.632499,15.57116 14.381896,16.21622 14.509039,14.250701 C 14.478181,9.7419127 18.507354,5.4896747 24.267233,5.5000046 C 30.027113,5.5103346 33.904227,9.8358126 33.587261,16.50775 L 37.509995,16.50775 z"/><path id="path5798" d="M 35.440806,17.531599 L 30.075144,24.093696 L 24.688211,17.531599 L 27.121888,17.564719 C 29.009834,14.188861 26.551647,10.105172 22.717614,10.000002 C 19.631365,9.9153426 17.072807,10.947472 15.892845,13.241971 C 15.645443,10.520122 19.37984,6.5031242 24.228233,6.4817142 C 29.076625,6.4603042 33.222064,9.5381428 32.605332,17.531599 L 35.440806,17.531599 z" style="opacity:.35400002;fill:none;fill-opacity:1;fill-rule:nonzero;stroke:url(#linearGradient5807);stroke-width:1.00000882;stroke-linecap:butt;stroke-linejoin:miter;marker:none;marker-start:none;marker-mid:none;marker-end:none;stroke-miterlimit:4;stroke-dasharray:none;stroke-dashoffset:0;stroke-opacity:1;visibility:visible;display:inline;overflow:visible;enable-background:accumulate"/></g></svg>