<svg xmlns="http://www.w3.org/2000/svg" xmlns:xlink="http://www.w3.org/1999/xlink" x="0" y="0" enable-background="new 0 0 100 100" version="1.1" viewBox="0 0 100 125" xml:space="preserve"><g><path fill="#000" d="M94.457,98.097H82.3c-10.932,0-12.338-19.858-13.468-35.815c-0.401-5.658-0.89-12.562-1.822-14.666 c-1.003,2.135-1.52,9.523-1.906,15.059C64,78.456,62.627,98.097,51.774,98.097c-9.735,0-11.329-24.892-12.518-60.057 c-0.445-13.183-0.993-29.394-2.74-32.811c-1.749,3.418-2.298,19.635-2.745,32.824c-1.19,35.158-2.785,60.043-12.514,60.043H6.555 v-3.193h14.704c7.393,0,8.601-35.655,9.322-56.958c0.929-27.434,1.594-36.302,5.936-36.302c4.34,0,5.005,8.865,5.932,36.288 c0.72,21.309,1.925,56.972,9.326,56.972c7.875,0,9.24-19.529,10.144-32.452c0.83-11.883,1.288-18.428,5.125-18.428 c3.697,0,4.151,6.405,4.975,18.032c0.926,13.081,2.326,32.848,10.282,32.848h12.157V98.097z"/></g><text x="0" y="115" fill="#000" font-family="'Helvetica Neue', Helvetica, Arial-Unicode, Arial, Sans-serif" font-size="5" font-weight="bold">Created by Fredrik Edfors</text><text x="0" y="120" fill="#000" font-family="'Helvetica Neue', Helvetica, Arial-Unicode, Arial, Sans-serif" font-size="5" font-weight="bold">from the Noun Project</text></svg>