<svg xmlns="http://www.w3.org/2000/svg" xmlns:svg="http://www.w3.org/2000/svg" id="svg120" width="91.558" height="93.431" x="0" y="0" enable-background="new 0 0 100 100" version="1.1" viewBox="0 0 91.558 93.431" xml:space="preserve"><metadata id="metadata126"/><g id="g114" transform="translate(-4.221,-2.989)"><g id="g112"><g id="g4"><path id="path2" d="m 71.903,95.506 c -0.718,0 -1.301,-0.582 -1.301,-1.3 l -0.033,-58.61 c 0,-0.718 0.582,-1.301 1.3,-1.301 h 0.001 c 0.718,0 1.301,0.582 1.301,1.3 l 0.033,58.609 c 0,0.719 -0.582,1.302 -1.301,1.302 z"/></g><g id="g8"><path id="path6" d="m 75.25,95.506 c -0.719,0 -1.301,-0.582 -1.301,-1.301 v -2.084 c 0,-0.719 0.582,-1.301 1.301,-1.301 0.719,0 1.301,0.582 1.301,1.301 v 2.084 c 0,0.719 -0.582,1.301 -1.301,1.301 z"/></g><g id="g12"><path id="path10" d="m 78.598,95.506 c -0.719,0 -1.301,-0.582 -1.301,-1.301 V 80.387 c 0,-0.719 0.582,-1.301 1.301,-1.301 0.719,0 1.301,0.582 1.301,1.301 v 13.818 c 0,0.719 -0.582,1.301 -1.301,1.301 z"/></g><g id="g16"><path id="path14" d="m 81.891,95.506 c -0.719,0 -1.301,-0.582 -1.301,-1.301 v -2.512 c 0,-0.719 0.582,-1.301 1.301,-1.301 0.719,0 1.301,0.582 1.301,1.301 v 2.512 c 0,0.719 -0.582,1.301 -1.301,1.301 z"/></g><g id="g110"><g id="g22"><line id="line18" x1="5.9" x2="5.9" y1="4.668" y2="94.741" style="fill:#000"/><path id="path20" d="m 5.9,96.419 c -0.927,0 -1.679,-0.751 -1.679,-1.679 V 4.668 c 0,-0.927 0.752,-1.679 1.679,-1.679 0.927,0 1.679,0.752 1.679,1.679 V 94.74 c 0,0.928 -0.752,1.679 -1.679,1.679 z"/></g><g id="g28"><line id="line24" x1="94.1" x2="5.9" y1="94.741" y2="94.741" style="fill:#000"/><path id="path26" d="M 94.1,96.42 H 5.9 c -0.927,0 -1.679,-0.752 -1.679,-1.68 0,-0.928 0.752,-1.68 1.679,-1.68 h 88.2 c 0.928,0 1.679,0.752 1.679,1.68 0,0.928 -0.751,1.68 -1.679,1.68 z"/></g><g id="g32"><line id="line30" x1="14.997" x2="14.997" y1="23.013" y2="94.206" style="fill:none"/></g><g id="g36"><path id="path34" stroke-miterlimit="10" d="M 25.462,95.333" style="fill:none;stroke:#000;stroke-width:2.6013999;stroke-linecap:round;stroke-miterlimit:10"/></g><g id="g40"><path id="path38" d="m 11.648,95.506 c -0.718,0 -1.301,-0.582 -1.301,-1.301 V 89.18 c 0,-0.719 0.583,-1.301 1.301,-1.301 0.718,0 1.301,0.582 1.301,1.301 v 5.025 c 0,0.719 -0.583,1.301 -1.301,1.301 z"/></g><g id="g44"><path id="path42" d="m 14.997,95.506 c -0.718,0 -1.301,-0.582 -1.301,-1.301 v -2.512 c 0,-0.719 0.583,-1.301 1.301,-1.301 0.718,0 1.301,0.582 1.301,1.301 v 2.512 c -10e-4,0.719 -0.583,1.301 -1.301,1.301 z"/></g><g id="g48"><path id="path46" d="m 18.343,95.506 c -0.718,0 -1.301,-0.582 -1.301,-1.301 V 58.612 c 0,-0.719 0.583,-1.301 1.301,-1.301 0.718,0 1.301,0.582 1.301,1.301 v 35.594 c 0,0.718 -0.583,1.3 -1.301,1.3 z"/></g><g id="g52"><path id="path50" d="m 21.698,95.506 c -0.718,0 -1.301,-0.582 -1.301,-1.301 V 42.684 c 0,-0.718 0.583,-1.301 1.301,-1.301 0.718,0 1.301,0.583 1.301,1.301 v 51.522 c 0,0.718 -0.582,1.3 -1.301,1.3 z"/></g><g id="g56"><path id="path54" d="m 25.047,95.506 c -0.718,0 -1.301,-0.582 -1.301,-1.301 v -8.902 c 0,-0.719 0.583,-1.301 1.301,-1.301 0.718,0 1.301,0.582 1.301,1.301 v 8.902 c 0,0.719 -0.583,1.301 -1.301,1.301 z"/></g><g id="g60"><path id="path58" d="m 28.399,95.506 c -0.718,0 -1.301,-0.582 -1.301,-1.301 V 85.41 c 0,-0.719 0.583,-1.301 1.301,-1.301 0.718,0 1.301,0.582 1.301,1.301 v 8.795 c 0,0.719 -0.583,1.301 -1.301,1.301 z"/></g><g id="g64"><path id="path62" d="m 31.747,95.506 c -0.718,0 -1.301,-0.582 -1.301,-1.301 v -4.393 c 0,-0.719 0.583,-1.301 1.301,-1.301 0.718,0 1.301,0.582 1.301,1.301 v 4.393 c 0,0.719 -0.583,1.301 -1.301,1.301 z"/></g><g id="g68"><path id="path66" d="m 35.098,95.506 c -0.718,0 -1.301,-0.582 -1.301,-1.301 v -4.393 c 0,-0.719 0.583,-1.301 1.301,-1.301 0.718,0 1.301,0.582 1.301,1.301 v 4.393 c -10e-4,0.719 -0.583,1.301 -1.301,1.301 z"/></g><g id="g72"><path id="path70" d="m 38.444,95.506 c -0.718,0 -1.301,-0.582 -1.301,-1.301 v -2.512 c 0,-0.719 0.583,-1.301 1.301,-1.301 0.718,0 1.301,0.582 1.301,1.301 v 2.512 c 0,0.719 -0.583,1.301 -1.301,1.301 z"/></g><g id="g76"><path id="path74" d="m 41.798,95.506 c -0.718,0 -1.301,-0.582 -1.301,-1.301 v -4.393 c 0,-0.719 0.583,-1.301 1.301,-1.301 0.718,0 1.301,0.582 1.301,1.301 v 4.393 c 0,0.719 -0.583,1.301 -1.301,1.301 z"/></g><g id="g80"><path id="path78" d="m 45.207,95.506 c -0.718,0 -1.301,-0.582 -1.301,-1.301 V 12.51 c 0,-0.718 0.583,-1.301 1.301,-1.301 0.718,0 1.301,0.583 1.301,1.301 v 81.696 c 0,0.718 -0.583,1.3 -1.301,1.3 z"/></g><g id="g84"><path id="path82" d="m 48.557,95.506 c -0.712,0 -1.293,-0.574 -1.3,-1.288 l -0.034,-3.457 c -0.007,-0.719 0.57,-1.307 1.288,-1.313 0.73,0.028 1.307,0.57 1.313,1.288 l 0.034,3.457 c 0.007,0.719 -0.57,1.307 -1.288,1.313 -0.004,0 -0.008,0 -0.013,0 z"/></g><g id="g88"><path id="path86" d="m 51.905,95.506 c -0.718,0 -1.301,-0.582 -1.301,-1.301 v -57.83 c 0,-0.718 0.583,-1.301 1.301,-1.301 0.719,0 1.301,0.583 1.301,1.301 v 57.831 c 0,0.718 -0.582,1.3 -1.301,1.3 z"/></g><g id="g92"><path id="path90" d="m 55.256,95.506 c -0.719,0 -1.301,-0.582 -1.301,-1.301 V 80.387 c 0,-0.719 0.582,-1.301 1.301,-1.301 0.719,0 1.301,0.582 1.301,1.301 v 13.818 c 0,0.719 -0.582,1.301 -1.301,1.301 z"/></g><g id="g96"><path id="path94" d="m 65.245,95.506 c -0.719,0 -1.301,-0.582 -1.301,-1.301 v -4.393 c 0,-0.719 0.582,-1.301 1.301,-1.301 0.719,0 1.301,0.582 1.301,1.301 v 4.393 c -0.001,0.719 -0.583,1.301 -1.301,1.301 z"/></g><g id="g100"><path id="path98" d="m 58.547,95.506 c -0.719,0 -1.301,-0.582 -1.301,-1.301 v -2.512 c 0,-0.719 0.582,-1.301 1.301,-1.301 0.719,0 1.301,0.582 1.301,1.301 v 2.512 c 0,0.719 -0.582,1.301 -1.301,1.301 z"/></g><g id="g104"><path id="path102" d="m 68.553,95.506 c -0.719,0 -1.301,-0.582 -1.301,-1.301 V 61.633 c 0,-0.719 0.582,-1.301 1.301,-1.301 0.719,0 1.301,0.582 1.301,1.301 v 32.572 c 0,0.719 -0.582,1.301 -1.301,1.301 z"/></g><g id="g108"><path id="path106" d="m 61.901,95.506 c -0.719,0 -1.301,-0.582 -1.301,-1.301 v -2.512 c 0,-0.719 0.582,-1.301 1.301,-1.301 0.719,0 1.301,0.582 1.301,1.301 v 2.512 c 0,0.719 -0.582,1.301 -1.301,1.301 z"/></g></g></g></g></svg>