<svg xmlns:dc="http://purl.org/dc/elements/1.1/" xmlns:cc="http://creativecommons.org/ns#" xmlns:rdf="http://www.w3.org/1999/02/22-rdf-syntax-ns#" xmlns:svg="http://www.w3.org/2000/svg" xmlns="http://www.w3.org/2000/svg" xmlns:sodipodi="http://sodipodi.sourceforge.net/DTD/sodipodi-0.dtd" xmlns:inkscape="http://www.inkscape.org/namespaces/inkscape" version="1.1" x="0px" y="0px" viewBox="0 0 100 125"><g transform="translate(0,-952.36218)"><path style="text-indent:0;text-transform:none;direction:ltr;block-progression:tb;baseline-shift:baseline;color:#000000;enable-background:accumulate;" d="m 32,959.48718 c -2.15818,0 -4.30761,1.65614 -6,4.78125 -1.29544,2.39204 -2.25214,5.57515 -2.625,9.15625 l 17.25,0 c -0.37796,-3.58025 -1.32986,-6.76467 -2.625,-9.15625 -1.69244,-3.12511 -3.84175,-4.78125 -6,-4.78125 z m 36,0 c -2.15818,0 -4.30761,1.65614 -6,4.78125 -1.29544,2.39204 -2.25214,5.57515 -2.625,9.15625 l 17.25,0 c -0.37796,-3.58025 -1.32986,-6.76467 -2.625,-9.15625 -1.69244,-3.12511 -3.84175,-4.78125 -6,-4.78125 z m -18,10 c -2.15818,0 -4.30761,1.65614 -6,4.78125 -1.29544,2.39204 -2.25214,5.57515 -2.625,9.15625 l 17.25,0 c -0.37796,-3.58025 -1.32986,-6.76467 -2.625,-9.15625 -1.69244,-3.12511 -3.84175,-4.78125 -6,-4.78125 z m -28.90625,6.53125 c -0.43329,0 -0.71875,0.28546 -0.71875,0.71875 l 0,43.21872 c 0,0.4333 0.28546,0.75 0.71875,0.75 l 14.6875,0 0,-33.96872 c 0,-1.7306 1.33878,-3.13368 3.03125,-3.28125 0.25238,-2.69702 0.7951,-5.21187 1.59375,-7.4375 l -19.3125,0 z m 38.5,0 c 0.80808,2.22719 1.36918,4.73791 1.625,7.4375 1.68067,0.1624 3.03125,1.56144 3.03125,3.28125 l 0,33.96872 14.65625,0 c 0.43329,0 0.71875,-0.3167 0.71875,-0.75 l 0,-43.21872 c 0,-0.43329 -0.28546,-0.71875 -0.71875,-0.71875 l -19.3125,0 z m -20.5,10 c -0.43329,0 -0.71875,0.28546 -0.71875,0.71875 l 0,43.21872 c 0,0.4333 0.28546,0.75 0.71875,0.75 l 21.8125,0 c 0.43329,0 0.71875,-0.3167 0.71875,-0.75 l 0,-43.21872 c 0,-0.43329 -0.28546,-0.71875 -0.71875,-0.71875 l -21.8125,0 z m -16.15625,37.28127 0,3.5312 12.84375,0 0,-3.5312 -12.84375,0 z m 41.3125,0 0,3.5312 12.8125,0 0,-3.5312 -12.8125,0 z m -43.15625,6.125 c -0.43329,0 -0.71875,0.3167 -0.71875,0.75 l 0,4.3125 c 0,0.4333 0.28546,0.75 0.71875,0.75 l 17.25,0 0,-2.0313 c -1.46033,-0.352 -2.5625,-1.6844 -2.5625,-3.25 l 0,-0.5312 -14.6875,0 z m 43.15625,0 0,0.5312 c 0,1.5656 -1.12683,2.898 -2.59375,3.25 l 0,2.0313 17.25,0 c 0.43329,0 0.71875,-0.3167 0.71875,-0.75 l 0,-4.3125 c 0,-0.4333 -0.28546,-0.75 -0.71875,-0.75 l -14.65625,0 z m -23.3125,3.875 0,3.5312 18.125,0 0,-3.5312 -18.125,0 z m -1.84375,6.125 c -0.43329,0 -0.71875,0.3167 -0.71875,0.75 l 0,4.3125 c 0,0.4333 0.28546,0.75 0.71875,0.75 l 21.8125,0 c 0.43329,0 0.71875,-0.3167 0.71875,-0.75 l 0,-4.3125 c 0,-0.4333 -0.28546,-0.75 -0.71875,-0.75 l -21.8125,0 z" fill="#000000" fill-opacity="1" fill-rule="nonzero" stroke="none" marker="none" visibility="visible" display="inline" overflow="visible"/></g><text x="0" y="115" fill="#000000" font-size="5px" font-weight="bold" font-family="'Helvetica Neue', Helvetica, Arial-Unicode, Arial, Sans-serif">Created by Nibras@design</text><text x="0" y="120" fill="#000000" font-size="5px" font-weight="bold" font-family="'Helvetica Neue', Helvetica, Arial-Unicode, Arial, Sans-serif">from the Noun Project</text></svg>