<?xml version="1.0" encoding="UTF-8" standalone="no"?>
<svg
   xmlns:dc="http://purl.org/dc/elements/1.1/"
   xmlns:cc="http://creativecommons.org/ns#"
   xmlns:rdf="http://www.w3.org/1999/02/22-rdf-syntax-ns#"
   xmlns:svg="http://www.w3.org/2000/svg"
   xmlns="http://www.w3.org/2000/svg"
   xmlns:sodipodi="http://sodipodi.sourceforge.net/DTD/sodipodi-0.dtd"
   xmlns:inkscape="http://www.inkscape.org/namespaces/inkscape"
   version="1.1"
   x="0px"
   y="0px"
   viewBox="0 0 91.557999 93.431"
   enable-background="new 0 0 100 100"
   xml:space="preserve"
   id="svg120"
   sodipodi:docname="Mass_Spectrum_by_Fredrik_Edfors_from_the_Noun_Project.svg"
   width="91.557999"
   height="93.431"
   inkscape:version="0.92.3 (2405546, 2018-03-11)"><metadata
     id="metadata126"><rdf:RDF><cc:Work
         rdf:about=""><dc:format>image/svg+xml</dc:format><dc:type
           rdf:resource="http://purl.org/dc/dcmitype/StillImage" /></cc:Work></rdf:RDF></metadata><defs
     id="defs124" /><sodipodi:namedview
     pagecolor="#ffffff"
     bordercolor="#666666"
     borderopacity="1"
     objecttolerance="10"
     gridtolerance="10"
     guidetolerance="10"
     inkscape:pageopacity="0"
     inkscape:pageshadow="2"
     inkscape:window-width="1920"
     inkscape:window-height="1056"
     id="namedview122"
     showgrid="false"
     inkscape:zoom="3.776"
     inkscape:cx="54.126702"
     inkscape:cy="44.259969"
     inkscape:window-x="1920"
     inkscape:window-y="24"
     inkscape:window-maximized="1"
     inkscape:current-layer="svg120" /><g
     id="g114"
     transform="translate(-4.221,-2.989)"><g
       id="g112"><g
         id="g4"><path
           d="m 71.903,95.506 c -0.718,0 -1.301,-0.582 -1.301,-1.3 l -0.033,-58.61 c 0,-0.718 0.582,-1.301 1.3,-1.301 h 0.001 c 0.718,0 1.301,0.582 1.301,1.3 l 0.033,58.609 c 0,0.719 -0.582,1.302 -1.301,1.302 z"
           id="path2"
           inkscape:connector-curvature="0" /></g><g
         id="g8"><path
           d="m 75.25,95.506 c -0.719,0 -1.301,-0.582 -1.301,-1.301 v -2.084 c 0,-0.719 0.582,-1.301 1.301,-1.301 0.719,0 1.301,0.582 1.301,1.301 v 2.084 c 0,0.719 -0.582,1.301 -1.301,1.301 z"
           id="path6"
           inkscape:connector-curvature="0" /></g><g
         id="g12"><path
           d="m 78.598,95.506 c -0.719,0 -1.301,-0.582 -1.301,-1.301 V 80.387 c 0,-0.719 0.582,-1.301 1.301,-1.301 0.719,0 1.301,0.582 1.301,1.301 v 13.818 c 0,0.719 -0.582,1.301 -1.301,1.301 z"
           id="path10"
           inkscape:connector-curvature="0" /></g><g
         id="g16"><path
           d="m 81.891,95.506 c -0.719,0 -1.301,-0.582 -1.301,-1.301 v -2.512 c 0,-0.719 0.582,-1.301 1.301,-1.301 0.719,0 1.301,0.582 1.301,1.301 v 2.512 c 0,0.719 -0.582,1.301 -1.301,1.301 z"
           id="path14"
           inkscape:connector-curvature="0" /></g><g
         id="g110"><g
           id="g22"><line
             x1="5.9000001"
             y1="4.6680002"
             x2="5.9000001"
             y2="94.740997"
             id="line18"
             style="fill:#000000" /><path
             d="m 5.9,96.419 c -0.927,0 -1.679,-0.751 -1.679,-1.679 V 4.668 c 0,-0.927 0.752,-1.679 1.679,-1.679 0.927,0 1.679,0.752 1.679,1.679 V 94.74 c 0,0.928 -0.752,1.679 -1.679,1.679 z"
             id="path20"
             inkscape:connector-curvature="0" /></g><g
           id="g28"><line
             x1="94.099998"
             y1="94.740997"
             x2="5.9000001"
             y2="94.740997"
             id="line24"
             style="fill:#000000" /><path
             d="M 94.1,96.42 H 5.9 c -0.927,0 -1.679,-0.752 -1.679,-1.68 0,-0.928 0.752,-1.68 1.679,-1.68 h 88.2 c 0.928,0 1.679,0.752 1.679,1.68 0,0.928 -0.751,1.68 -1.679,1.68 z"
             id="path26"
             inkscape:connector-curvature="0" /></g><g
           id="g32"><line
             x1="14.997"
             y1="23.013"
             x2="14.997"
             y2="94.206001"
             id="line30"
             style="fill:none" /></g><g
           id="g36"><path
             stroke-miterlimit="10"
             d="M 25.462,95.333"
             id="path34"
             inkscape:connector-curvature="0"
             style="fill:none;stroke:#000000;stroke-width:2.6013999;stroke-linecap:round;stroke-miterlimit:10" /></g><g
           id="g40"><path
             d="m 11.648,95.506 c -0.718,0 -1.301,-0.582 -1.301,-1.301 V 89.18 c 0,-0.719 0.583,-1.301 1.301,-1.301 0.718,0 1.301,0.582 1.301,1.301 v 5.025 c 0,0.719 -0.583,1.301 -1.301,1.301 z"
             id="path38"
             inkscape:connector-curvature="0" /></g><g
           id="g44"><path
             d="m 14.997,95.506 c -0.718,0 -1.301,-0.582 -1.301,-1.301 v -2.512 c 0,-0.719 0.583,-1.301 1.301,-1.301 0.718,0 1.301,0.582 1.301,1.301 v 2.512 c -10e-4,0.719 -0.583,1.301 -1.301,1.301 z"
             id="path42"
             inkscape:connector-curvature="0" /></g><g
           id="g48"><path
             d="m 18.343,95.506 c -0.718,0 -1.301,-0.582 -1.301,-1.301 V 58.612 c 0,-0.719 0.583,-1.301 1.301,-1.301 0.718,0 1.301,0.582 1.301,1.301 v 35.594 c 0,0.718 -0.583,1.3 -1.301,1.3 z"
             id="path46"
             inkscape:connector-curvature="0" /></g><g
           id="g52"><path
             d="m 21.698,95.506 c -0.718,0 -1.301,-0.582 -1.301,-1.301 V 42.684 c 0,-0.718 0.583,-1.301 1.301,-1.301 0.718,0 1.301,0.583 1.301,1.301 v 51.522 c 0,0.718 -0.582,1.3 -1.301,1.3 z"
             id="path50"
             inkscape:connector-curvature="0" /></g><g
           id="g56"><path
             d="m 25.047,95.506 c -0.718,0 -1.301,-0.582 -1.301,-1.301 v -8.902 c 0,-0.719 0.583,-1.301 1.301,-1.301 0.718,0 1.301,0.582 1.301,1.301 v 8.902 c 0,0.719 -0.583,1.301 -1.301,1.301 z"
             id="path54"
             inkscape:connector-curvature="0" /></g><g
           id="g60"><path
             d="m 28.399,95.506 c -0.718,0 -1.301,-0.582 -1.301,-1.301 V 85.41 c 0,-0.719 0.583,-1.301 1.301,-1.301 0.718,0 1.301,0.582 1.301,1.301 v 8.795 c 0,0.719 -0.583,1.301 -1.301,1.301 z"
             id="path58"
             inkscape:connector-curvature="0" /></g><g
           id="g64"><path
             d="m 31.747,95.506 c -0.718,0 -1.301,-0.582 -1.301,-1.301 v -4.393 c 0,-0.719 0.583,-1.301 1.301,-1.301 0.718,0 1.301,0.582 1.301,1.301 v 4.393 c 0,0.719 -0.583,1.301 -1.301,1.301 z"
             id="path62"
             inkscape:connector-curvature="0" /></g><g
           id="g68"><path
             d="m 35.098,95.506 c -0.718,0 -1.301,-0.582 -1.301,-1.301 v -4.393 c 0,-0.719 0.583,-1.301 1.301,-1.301 0.718,0 1.301,0.582 1.301,1.301 v 4.393 c -10e-4,0.719 -0.583,1.301 -1.301,1.301 z"
             id="path66"
             inkscape:connector-curvature="0" /></g><g
           id="g72"><path
             d="m 38.444,95.506 c -0.718,0 -1.301,-0.582 -1.301,-1.301 v -2.512 c 0,-0.719 0.583,-1.301 1.301,-1.301 0.718,0 1.301,0.582 1.301,1.301 v 2.512 c 0,0.719 -0.583,1.301 -1.301,1.301 z"
             id="path70"
             inkscape:connector-curvature="0" /></g><g
           id="g76"><path
             d="m 41.798,95.506 c -0.718,0 -1.301,-0.582 -1.301,-1.301 v -4.393 c 0,-0.719 0.583,-1.301 1.301,-1.301 0.718,0 1.301,0.582 1.301,1.301 v 4.393 c 0,0.719 -0.583,1.301 -1.301,1.301 z"
             id="path74"
             inkscape:connector-curvature="0" /></g><g
           id="g80"><path
             d="m 45.207,95.506 c -0.718,0 -1.301,-0.582 -1.301,-1.301 V 12.51 c 0,-0.718 0.583,-1.301 1.301,-1.301 0.718,0 1.301,0.583 1.301,1.301 v 81.696 c 0,0.718 -0.583,1.3 -1.301,1.3 z"
             id="path78"
             inkscape:connector-curvature="0" /></g><g
           id="g84"><path
             d="m 48.557,95.506 c -0.712,0 -1.293,-0.574 -1.3,-1.288 l -0.034,-3.457 c -0.007,-0.719 0.57,-1.307 1.288,-1.313 0.73,0.028 1.307,0.57 1.313,1.288 l 0.034,3.457 c 0.007,0.719 -0.57,1.307 -1.288,1.313 -0.004,0 -0.008,0 -0.013,0 z"
             id="path82"
             inkscape:connector-curvature="0" /></g><g
           id="g88"><path
             d="m 51.905,95.506 c -0.718,0 -1.301,-0.582 -1.301,-1.301 v -57.83 c 0,-0.718 0.583,-1.301 1.301,-1.301 0.719,0 1.301,0.583 1.301,1.301 v 57.831 c 0,0.718 -0.582,1.3 -1.301,1.3 z"
             id="path86"
             inkscape:connector-curvature="0" /></g><g
           id="g92"><path
             d="m 55.256,95.506 c -0.719,0 -1.301,-0.582 -1.301,-1.301 V 80.387 c 0,-0.719 0.582,-1.301 1.301,-1.301 0.719,0 1.301,0.582 1.301,1.301 v 13.818 c 0,0.719 -0.582,1.301 -1.301,1.301 z"
             id="path90"
             inkscape:connector-curvature="0" /></g><g
           id="g96"><path
             d="m 65.245,95.506 c -0.719,0 -1.301,-0.582 -1.301,-1.301 v -4.393 c 0,-0.719 0.582,-1.301 1.301,-1.301 0.719,0 1.301,0.582 1.301,1.301 v 4.393 c -0.001,0.719 -0.583,1.301 -1.301,1.301 z"
             id="path94"
             inkscape:connector-curvature="0" /></g><g
           id="g100"><path
             d="m 58.547,95.506 c -0.719,0 -1.301,-0.582 -1.301,-1.301 v -2.512 c 0,-0.719 0.582,-1.301 1.301,-1.301 0.719,0 1.301,0.582 1.301,1.301 v 2.512 c 0,0.719 -0.582,1.301 -1.301,1.301 z"
             id="path98"
             inkscape:connector-curvature="0" /></g><g
           id="g104"><path
             d="m 68.553,95.506 c -0.719,0 -1.301,-0.582 -1.301,-1.301 V 61.633 c 0,-0.719 0.582,-1.301 1.301,-1.301 0.719,0 1.301,0.582 1.301,1.301 v 32.572 c 0,0.719 -0.582,1.301 -1.301,1.301 z"
             id="path102"
             inkscape:connector-curvature="0" /></g><g
           id="g108"><path
             d="m 61.901,95.506 c -0.719,0 -1.301,-0.582 -1.301,-1.301 v -2.512 c 0,-0.719 0.582,-1.301 1.301,-1.301 0.719,0 1.301,0.582 1.301,1.301 v 2.512 c 0,0.719 -0.582,1.301 -1.301,1.301 z"
             id="path106"
             inkscape:connector-curvature="0" /></g></g></g></g></svg>