<?xml version="1.0" encoding="UTF-8" standalone="no"?>
<svg
   xmlns:dc="http://purl.org/dc/elements/1.1/"
   xmlns:cc="http://creativecommons.org/ns#"
   xmlns:rdf="http://www.w3.org/1999/02/22-rdf-syntax-ns#"
   xmlns:svg="http://www.w3.org/2000/svg"
   xmlns="http://www.w3.org/2000/svg"
   xmlns:sodipodi="http://sodipodi.sourceforge.net/DTD/sodipodi-0.dtd"
   xmlns:inkscape="http://www.inkscape.org/namespaces/inkscape"
   version="1.1"
   x="0px"
   y="0px"
   viewBox="0 0 100 100"
   id="svg877"
   sodipodi:docname="Ammo_Details_Icon.svg"
   inkscape:version="0.92.3 (2405546, 2018-03-11)"
   width="100"
   height="100"
   inkscape:export-filename="/home/domdf/GunShotMatch/GunShotMatch/GSMatch/lib/icons/ammo_details_Icon_16.png"
   inkscape:export-xdpi="15.36"
   inkscape:export-ydpi="15.36">
  <metadata
     id="metadata883">
    <rdf:RDF>
      <cc:Work
         rdf:about="">
        <dc:format>image/svg+xml</dc:format>
        <dc:type
           rdf:resource="http://purl.org/dc/dcmitype/StillImage" />
        <dc:title></dc:title>
      </cc:Work>
    </rdf:RDF>
  </metadata>
  <defs
     id="defs881" />
  <sodipodi:namedview
     pagecolor="#ffffff"
     bordercolor="#666666"
     borderopacity="1"
     objecttolerance="10"
     gridtolerance="10"
     guidetolerance="10"
     inkscape:pageopacity="0"
     inkscape:pageshadow="2"
     inkscape:window-width="1855"
     inkscape:window-height="1056"
     id="namedview879"
     showgrid="false"
     inkscape:zoom="0.914"
     inkscape:cx="-182.87758"
     inkscape:cy="231.97712"
     inkscape:window-x="1985"
     inkscape:window-y="26"
     inkscape:window-maximized="1"
     inkscape:current-layer="svg877" />
  <g
     transform="translate(0,-952.36219)"
     id="g871">
    <path
       style="color:#000000;text-indent:0;text-transform:none;direction:ltr;baseline-shift:baseline;display:inline;overflow:visible;visibility:visible;fill:#000000;fill-opacity:1;fill-rule:nonzero;stroke:none;enable-background:accumulate"
       d="m 32,959.48718 c -2.15818,0 -4.30761,1.65614 -6,4.78125 -1.29544,2.39204 -2.25214,5.57515 -2.625,9.15625 h 17.25 c -0.37796,-3.58025 -1.32986,-6.76467 -2.625,-9.15625 -1.69244,-3.12511 -3.84175,-4.78125 -6,-4.78125 z m 36,0 c -2.15818,0 -4.30761,1.65614 -6,4.78125 -1.29544,2.39204 -2.25214,5.57515 -2.625,9.15625 h 17.25 c -0.37796,-3.58025 -1.32986,-6.76467 -2.625,-9.15625 -1.69244,-3.12511 -3.84175,-4.78125 -6,-4.78125 z m -18,10 c -2.15818,0 -4.30761,1.65614 -6,4.78125 -1.29544,2.39204 -2.25214,5.57515 -2.625,9.15625 h 17.25 c -0.37796,-3.58025 -1.32986,-6.76467 -2.625,-9.15625 -1.69244,-3.12511 -3.84175,-4.78125 -6,-4.78125 z m -28.90625,6.53125 c -0.43329,0 -0.71875,0.28546 -0.71875,0.71875 v 43.21872 c 0,0.4333 0.28546,0.75 0.71875,0.75 h 14.6875 v -33.96872 c 0,-1.7306 1.33878,-3.13368 3.03125,-3.28125 0.25238,-2.69702 0.7951,-5.21187 1.59375,-7.4375 z m 38.5,0 c 0.80808,2.22719 1.36918,4.73791 1.625,7.4375 1.68067,0.1624 3.03125,1.56144 3.03125,3.28125 v 33.96872 h 14.65625 c 0.43329,0 0.71875,-0.3167 0.71875,-0.75 v -43.21872 c 0,-0.43329 -0.28546,-0.71875 -0.71875,-0.71875 z m -20.5,10 c -0.43329,0 -0.71875,0.28546 -0.71875,0.71875 v 43.21872 c 0,0.4333 0.28546,0.75 0.71875,0.75 h 21.8125 c 0.43329,0 0.71875,-0.3167 0.71875,-0.75 v -43.21872 c 0,-0.43329 -0.28546,-0.71875 -0.71875,-0.71875 z M 22.9375,1023.2997 v 3.5312 h 12.84375 v -3.5312 z m 41.3125,0 v 3.5312 h 12.8125 v -3.5312 z m -43.15625,6.125 c -0.43329,0 -0.71875,0.3167 -0.71875,0.75 v 4.3125 c 0,0.4333 0.28546,0.75 0.71875,0.75 h 17.25 v -2.0313 c -1.46033,-0.352 -2.5625,-1.6844 -2.5625,-3.25 v -0.5312 z m 43.15625,0 v 0.5312 c 0,1.5656 -1.12683,2.898 -2.59375,3.25 v 2.0313 h 17.25 c 0.43329,0 0.71875,-0.3167 0.71875,-0.75 v -4.3125 c 0,-0.4333 -0.28546,-0.75 -0.71875,-0.75 z m -23.3125,3.875 v 3.5312 h 18.125 v -3.5312 z m -1.84375,6.125 c -0.43329,0 -0.71875,0.3167 -0.71875,0.75 v 4.3125 c 0,0.4333 0.28546,0.75 0.71875,0.75 h 21.8125 c 0.43329,0 0.71875,-0.3167 0.71875,-0.75 v -4.3125 c 0,-0.4333 -0.28546,-0.75 -0.71875,-0.75 z"
       marker="none"
       visibility="visible"
       display="inline"
       overflow="visible"
       id="path869"
       inkscape:connector-curvature="0" />
  </g>
</svg>
