<?xml version="1.0" encoding="UTF-8" standalone="no"?>
<svg
   xmlns:dc="http://purl.org/dc/elements/1.1/"
   xmlns:cc="http://creativecommons.org/ns#"
   xmlns:rdf="http://www.w3.org/1999/02/22-rdf-syntax-ns#"
   xmlns:svg="http://www.w3.org/2000/svg"
   xmlns="http://www.w3.org/2000/svg"
   xmlns:sodipodi="http://sodipodi.sourceforge.net/DTD/sodipodi-0.dtd"
   xmlns:inkscape="http://www.inkscape.org/namespaces/inkscape"
   version="1.1"
   x="0px"
   y="0px"
   viewBox="0 0 100 100"
   enable-background="new 0 0 100 100"
   xml:space="preserve"
   id="svg10"
   sodipodi:docname="HPLC_Chromatogram_by_Fredrik_Edfors_from_the_Noun_Project.svg"
   width="100"
   height="100"
   inkscape:version="0.92.4 (5da689c313, 2019-01-14)"><metadata
     id="metadata16"><rdf:RDF><cc:Work
         rdf:about=""><dc:format>image/svg+xml</dc:format><dc:type
           rdf:resource="http://purl.org/dc/dcmitype/StillImage" /><dc:title></dc:title></cc:Work></rdf:RDF></metadata><defs
     id="defs14" /><sodipodi:namedview
     pagecolor="#ffffff"
     bordercolor="#666666"
     borderopacity="1"
     objecttolerance="10"
     gridtolerance="10"
     guidetolerance="10"
     inkscape:pageopacity="0"
     inkscape:pageshadow="2"
     inkscape:window-width="1920"
     inkscape:window-height="1017"
     id="namedview12"
     showgrid="false"
     inkscape:zoom="1.888"
     inkscape:cx="47.616525"
     inkscape:cy="62.5"
     inkscape:window-x="-8"
     inkscape:window-y="-8"
     inkscape:window-maximized="1"
     inkscape:current-layer="svg10" /><g
     id="g4"
     transform="translate(0,1)"><path
       d="M 94.457,98.097 H 82.3 C 71.368,98.097 69.962,78.239 68.832,62.282 68.431,56.624 67.942,49.72 67.01,47.616 66.007,49.751 65.49,57.139 65.104,62.675 64,78.456 62.627,98.097 51.774,98.097 42.039,98.097 40.445,73.205 39.256,38.04 38.811,24.857 38.263,8.646 36.516,5.229 34.767,8.647 34.218,24.864 33.771,38.053 32.581,73.211 30.986,98.096 21.257,98.096 H 6.555 v -3.193 h 14.704 c 7.393,0 8.601,-35.655 9.322,-56.958 0.929,-27.434 1.594,-36.302 5.936,-36.302 4.34,0 5.005,8.865 5.932,36.288 0.72,21.309 1.925,56.972 9.326,56.972 7.875,0 9.24,-19.529 10.144,-32.452 0.83,-11.883 1.288,-18.428 5.125,-18.428 3.697,0 4.151,6.405 4.975,18.032 0.926,13.081 2.326,32.848 10.282,32.848 h 12.157 v 3.194 z"
       id="path2"
       inkscape:connector-curvature="0"
       style="fill:#000000" /></g></svg>