<?xml version="1.0" encoding="UTF-8" standalone="no"?>
<!-- Created with Inkscape (http://www.inkscape.org/) -->

<svg
   xmlns:dc="http://purl.org/dc/elements/1.1/"
   xmlns:cc="http://creativecommons.org/ns#"
   xmlns:rdf="http://www.w3.org/1999/02/22-rdf-syntax-ns#"
   xmlns:svg="http://www.w3.org/2000/svg"
   xmlns="http://www.w3.org/2000/svg"
   xmlns:xlink="http://www.w3.org/1999/xlink"
   xmlns:sodipodi="http://sodipodi.sourceforge.net/DTD/sodipodi-0.dtd"
   xmlns:inkscape="http://www.inkscape.org/namespaces/inkscape"
   width="11.112386mm"
   height="11.112386mm"
   viewBox="0 0 11.112386 11.112386"
   version="1.1"
   id="svg8"
   inkscape:version="0.92.3 (2405546, 2018-03-11)"
   sodipodi:docname="comparison_green.svg"
   inkscape:export-filename="/ownCloud/ownCloud/GunShotMatch/GSMatch/lib/icons/comparison_green_110.png"
   inkscape:export-xdpi="251.4352"
   inkscape:export-ydpi="251.4352">
  <defs
     id="defs2">
    <linearGradient
       id="linearGradient4592">
      <stop
         id="stop4588"
         style="stop-color:#f4f4f4;stop-opacity:1"
         offset="0" />
      <stop
         id="stop4590"
         style="stop-color:#ff6a00;stop-opacity:1"
         offset="1" />
    </linearGradient>
    <linearGradient
       gradientTransform="matrix(0.14363987,0,0,0.12935665,28.416142,117.51291)"
       gradientUnits="userSpaceOnUse"
       xlink:href="#linearGradient4592"
       id="linearGradient4545"
       y2="47.013336"
       x2="25.132275"
       y1="6.7287393"
       x1="25.132275" />
    <linearGradient
       id="linearGradient3600">
      <stop
         offset="0"
         style="stop-color:#f4f4f4;stop-opacity:1"
         id="stop3602" />
      <stop
         offset="1"
         style="stop-color:#009c04;stop-opacity:1"
         id="stop3604" />
    </linearGradient>
    <linearGradient
       gradientTransform="matrix(0.11598875,0,0,0.12105858,36.94982,117.36875)"
       gradientUnits="userSpaceOnUse"
       xlink:href="#linearGradient3931"
       id="linearGradient4547"
       y2="1.7017913"
       x2="-8.8878784"
       y1="50.786446"
       x1="-51.786404" />
    <linearGradient
       id="linearGradient3931">
      <stop
         offset="0"
         style="stop-color:#747671;stop-opacity:1"
         id="stop3933" />
      <stop
         offset="1"
         style="stop-color:#cbcbcb;stop-opacity:1"
         id="stop3935" />
    </linearGradient>
    <linearGradient
       gradientTransform="matrix(0.14363713,0,0,0.1293567,33.443242,121.21708)"
       gradientUnits="userSpaceOnUse"
       xlink:href="#linearGradient3600"
       id="linearGradient3192"
       y2="47.013336"
       x2="25.132275"
       y1="6.7287393"
       x1="25.132275" />
    <linearGradient
       gradientTransform="matrix(0.11598653,0,0,0.12105862,41.976757,121.07291)"
       gradientUnits="userSpaceOnUse"
       xlink:href="#linearGradient3931"
       id="linearGradient3194"
       y2="-19.797691"
       x2="-22.573992"
       y1="14.969027"
       x1="-64.247643" />
  </defs>
  <sodipodi:namedview
     id="base"
     pagecolor="#ffffff"
     bordercolor="#666666"
     borderopacity="1.0"
     inkscape:pageopacity="0.0"
     inkscape:pageshadow="2"
     inkscape:zoom="11.2"
     inkscape:cx="-5.9943792"
     inkscape:cy="35.607274"
     inkscape:document-units="mm"
     inkscape:current-layer="layer1"
     showgrid="false"
     fit-margin-top="0"
     fit-margin-left="0"
     fit-margin-right="0"
     fit-margin-bottom="0"
     inkscape:window-width="1855"
     inkscape:window-height="1056"
     inkscape:window-x="65"
     inkscape:window-y="24"
     inkscape:window-maximized="1" />
  <metadata
     id="metadata5">
    <rdf:RDF>
      <cc:Work
         rdf:about="">
        <dc:format>image/svg+xml</dc:format>
        <dc:type
           rdf:resource="http://purl.org/dc/dcmitype/StillImage" />
        <dc:title></dc:title>
      </cc:Work>
    </rdf:RDF>
  </metadata>
  <g
     inkscape:label="Layer 1"
     inkscape:groupmode="layer"
     id="layer1"
     transform="translate(-29.217617,-117.57476)">
    <path
       inkscape:connector-curvature="0"
       d="m 29.349796,117.70694 5.821059,1.2e-4 v 7.14374 h -5.821059 z"
       id="rect2594"
       style="display:inline;fill:url(#linearGradient4545);fill-opacity:1.0;stroke:url(#linearGradient4547);stroke-width:0.264;stroke-linecap:butt;stroke-linejoin:round;stroke-miterlimit:4;stroke-dasharray:none;stroke-dashoffset:0;stroke-opacity:1" />
    <path
       inkscape:connector-curvature="0"
       d="m 34.376878,121.41111 5.820947,1.1e-4 v 7.14375 h -5.820947 z"
       id="path3064"
       style="display:inline;fill:url(#linearGradient3192);fill-opacity:1;stroke:url(#linearGradient3194);stroke-width:0.26435551;stroke-linecap:butt;stroke-linejoin:round;stroke-miterlimit:4;stroke-dasharray:none;stroke-dashoffset:0;stroke-opacity:1" />
    <path
       inkscape:connector-curvature="0"
       d="m 37.01191,126.83518 h -0.819414 v 0.26458 h 0.819414 z m 0.283442,0 h -0.22517 v 0.26458 h 0.22517 z m -1.97346,0 h 0.819414 v 0.26458 h -0.819414 z m -0.283442,0 h 0.22517 v 0.26458 h -0.22517 z m 3.0498,-1.05833 h 0.274282 v 0.26458 H 38.08825 Z m -0.561094,0 h 0.514925 v 0.26458 h -0.514925 z m -0.128917,0 h 0.08275 v 0.26458 h -0.08275 z m -0.443226,0 h 0.397058 v 0.26458 h -0.397058 z m -0.320451,0 h 0.27428 v 0.26458 h -0.27428 z m -0.32045,0 h 0.274281 v 0.26458 h -0.274281 z m -0.44814,0 h 0.401971 v 0.26458 h -0.401971 z m -0.222227,0 h 0.176058 v 0.26458 h -0.176058 z m -0.605295,0 h 0.559126 v 0.26458 H 35.03845 Z m 1.686967,-0.79375 h 0.333215 v 0.26458 h -0.333215 z m 1.2155,0 h 0.740837 v 0.26458 h -0.740837 z m -0.503388,0 h 0.455992 v 0.26458 h -0.455992 z m -0.331501,0 h 0.284103 v 0.26458 h -0.284103 z m -0.785777,0 h 0.357769 v 0.26458 h -0.357769 z m -0.788234,0 h 0.740836 v 0.26458 h -0.740836 z m -0.493567,0 h 0.44617 v 0.26458 h -0.44617 z m 3.197134,1.32291 h 0.26446 v 0.26459 h -0.26446 z m -0.14593,0 h 0.09748 v 0.26459 h -0.09748 z m -0.68966,0 h 0.426525 v 0.26459 h -0.426525 z m 0.474974,0 h 0.166236 v 0.26459 h -0.166236 z m -1.146393,0 h 0.622969 v 0.26459 h -0.622969 z m -0.312909,0 h 0.264459 v 0.26459 h -0.264459 z m -0.710707,0 h 0.662257 v 0.26459 h -0.662257 z m -0.666509,0 h 0.618059 v 0.26459 H 35.03845 Z m 3.197133,-2.91041 h 0.264459 v 0.26458 h -0.264459 z m -0.14593,0 h 0.09748 v 0.26458 h -0.09748 z m -0.689659,0 h 0.426524 v 0.26458 h -0.426524 z m 0.474974,0 h 0.166235 v 0.26458 h -0.166235 z m -1.146393,0 h 0.622969 v 0.26458 h -0.622969 z m -0.312909,0 h 0.264459 v 0.26458 h -0.264459 z m -0.710707,0 h 0.662257 v 0.26458 h -0.662257 z m -0.666509,0 h 0.618059 v 0.26458 H 35.03845 Z m 2.990868,-0.52917 h 0.07784 v 0.26458 h -0.07784 z m -0.382453,0 h 0.333214 v 0.26458 h -0.333214 z m -0.544521,0 h 0.495282 v 0.26458 h -0.495282 z m -0.426652,0 h 0.377414 v 0.26458 h -0.377414 z m -0.28423,0 h 0.234991 v 0.26458 h -0.234991 z m -0.28423,0 h 0.234992 v 0.26458 h -0.234992 z m -0.171275,0 h 0.122035 v 0.26458 h -0.122035 z m -0.308787,0 h 0.259548 v 0.26458 H 35.62717 Z m -0.58872,0 h 0.539481 v 0.26458 H 35.03845 Z m 3.221689,1.05833 h 0.338125 v 0.26459 h -0.338125 z m -0.218544,0 h 0.171146 v 0.26459 h -0.171146 z m -0.606523,0 h 0.559125 v 0.26459 h -0.559125 z m -0.783321,0 h 0.735925 v 0.26459 h -0.735925 z m -0.331501,0 h 0.284103 v 0.26459 H 36.32025 Z m -0.174345,0 h 0.126948 v 0.26459 h -0.126948 z m -0.33641,0 h 0.289014 v 0.26459 h -0.289014 z m -0.375701,0 h 0.328304 v 0.26459 h -0.328304 z m -0.395344,0 h 0.347948 v 0.26459 H 35.03845 Z m 2.477645,-1.5875 h 0.578028 v 0.26459 h -0.578028 z m -0.809803,0 h 0.760805 v 0.26459 h -0.760805 z m -0.342707,0 h 0.293707 v 0.26459 h -0.293707 z m -0.18024,0 h 0.13124 v 0.26459 h -0.13124 z m -0.347783,0 h 0.298785 v 0.26459 h -0.298785 z m -0.388402,0 h 0.339403 v 0.26459 H 35.44716 Z m -0.40871,0 h 0.359711 v 0.26459 H 35.03845 Z m -3.053572,0.79375 h -0.819429 v 0.26459 h 0.819429 z m 0.283448,0 h -0.225174 v 0.26459 h 0.225174 z m -1.973498,0 h 0.819429 v 0.26459 h -0.819429 z m -0.283447,0 h 0.225174 v 0.26459 h -0.225174 z m 3.049858,-1.05833 h 0.274287 v 0.26458 h -0.274287 z m -0.561104,0 h 0.514935 v 0.26458 h -0.514935 z m -0.128921,0 h 0.08275 v 0.26458 h -0.08275 z m -0.443234,0 h 0.397066 v 0.26458 H 31.92798 Z m -0.320457,0 h 0.274286 v 0.26458 h -0.274286 z m -0.320456,0 h 0.274287 v 0.26458 h -0.274287 z m -0.448148,0 h 0.401978 v 0.26458 h -0.401978 z m -0.222232,0 h 0.176062 v 0.26458 h -0.176062 z m -0.605306,0 h 0.559136 v 0.26458 h -0.559136 z m 1.686999,-0.79375 h 0.333222 v 0.26458 H 31.69838 Z m 1.215523,0 h 0.740851 v 0.26458 h -0.740851 z m -0.503398,0 h 0.456001 v 0.26458 h -0.456001 z m -0.331507,0 h 0.284109 v 0.26458 h -0.284109 z m -0.785792,0 h 0.357776 v 0.26458 h -0.357776 z m -0.788248,0 h 0.740849 v 0.26458 h -0.740849 z m -0.493577,0 h 0.446178 v 0.26458 h -0.446178 z m 3.197195,1.32292 h 0.264465 v 0.26458 h -0.264465 z m -0.145933,0 h 0.09748 v 0.26458 h -0.09748 z m -0.689673,0 h 0.426533 v 0.26458 H 32.37297 Z m 0.474983,0 h 0.16624 v 0.26458 h -0.16624 z m -1.146415,0 h 0.622981 v 0.26458 h -0.622981 z m -0.312915,0 h 0.264464 v 0.26458 h -0.264464 z m -0.710721,0 h 0.66227 v 0.26458 h -0.66227 z m -0.666521,0 h 0.618071 v 0.26458 h -0.618071 z m 3.197194,-2.91042 h 0.264464 v 0.26458 h -0.264464 z m -0.145933,0 h 0.09748 v 0.26458 h -0.09748 z m -0.689673,0 h 0.426533 v 0.26458 h -0.426533 z m 0.474984,0 h 0.166238 v 0.26458 h -0.166238 z m -1.146415,0 h 0.62298 v 0.26458 h -0.62298 z m -0.312915,0 h 0.264464 v 0.26458 h -0.264464 z m -0.710721,0 h 0.66227 v 0.26458 h -0.66227 z m -0.666521,0 h 0.61807 v 0.26458 h -0.61807 z m 2.990925,-0.52916 h 0.07784 v 0.26458 h -0.07784 z m -0.38246,0 h 0.33322 v 0.26458 h -0.33322 z m -0.544532,0 h 0.495292 v 0.26458 h -0.495292 z m -0.42666,0 h 0.377421 v 0.26458 h -0.377421 z m -0.284236,0 h 0.234996 v 0.26458 h -0.234996 z m -0.284235,0 h 0.234997 v 0.26458 h -0.234997 z m -0.171278,0 h 0.122038 v 0.26458 h -0.122038 z m -0.308793,0 h 0.259553 v 0.26458 h -0.259553 z m -0.588731,0 h 0.539491 v 0.26458 h -0.539491 z m 3.22175,1.05833 h 0.338132 v 0.26458 h -0.338132 z m -0.218548,0 h 0.171149 v 0.26458 h -0.171149 z m -0.606535,0 h 0.559136 v 0.26458 h -0.559136 z m -0.783336,0 h 0.735939 v 0.26458 h -0.735939 z m -0.331507,0 h 0.284108 v 0.26458 h -0.284108 z m -0.174348,0 h 0.12695 v 0.26458 h -0.12695 z m -0.336417,0 h 0.28902 v 0.26458 h -0.28902 z m -0.375708,0 h 0.328311 v 0.26458 h -0.328311 z m -0.395351,0 h 0.347954 v 0.26458 h -0.347954 z m 2.477692,-1.5875 h 0.578039 v 0.26458 h -0.578039 z m -0.809818,0 h 0.760819 v 0.26458 h -0.760819 z m -0.342714,0 h 0.293713 v 0.26458 h -0.293713 z m -0.180243,0 h 0.131242 v 0.26458 h -0.131242 z m -0.347791,0 h 0.298792 v 0.26458 h -0.298792 z m -0.388409,0 h 0.33941 v 0.26458 h -0.33941 z m -0.408717,0 h 0.359718 v 0.26458 h -0.359718 z"
       id="path3186"
       style="display:inline;opacity:0.7;fill:#666666;fill-opacity:1;stroke:none;stroke-width:0.26458332" />
  </g>
</svg>
