<?xml version="1.0" encoding="UTF-8" standalone="no"?>
<svg
   xmlns:dc="http://purl.org/dc/elements/1.1/"
   xmlns:cc="http://creativecommons.org/ns#"
   xmlns:rdf="http://www.w3.org/1999/02/22-rdf-syntax-ns#"
   xmlns:svg="http://www.w3.org/2000/svg"
   xmlns="http://www.w3.org/2000/svg"
   xmlns:sodipodi="http://sodipodi.sourceforge.net/DTD/sodipodi-0.dtd"
   xmlns:inkscape="http://www.inkscape.org/namespaces/inkscape"
   height="16"
   width="16"
   version="1.1"
   id="svg4"
   sodipodi:docname="zoom-fit-best-symbolic.svg"
   inkscape:export-filename="C:\Users\dom13\Downloads\GSM icons\zoom-fit-best-symbolic_24.png"
   inkscape:export-xdpi="144"
   inkscape:export-ydpi="144"
   inkscape:version="0.92.2 (5c3e80d, 2017-08-06)">
  <metadata
     id="metadata10">
    <rdf:RDF>
      <cc:Work
         rdf:about="">
        <dc:format>image/svg+xml</dc:format>
        <dc:type
           rdf:resource="http://purl.org/dc/dcmitype/StillImage" />
      </cc:Work>
    </rdf:RDF>
  </metadata>
  <defs
     id="defs8" />
  <sodipodi:namedview
     pagecolor="#ffffff"
     bordercolor="#666666"
     borderopacity="1"
     objecttolerance="10"
     gridtolerance="10"
     guidetolerance="10"
     inkscape:pageopacity="0"
     inkscape:pageshadow="2"
     inkscape:window-width="1920"
     inkscape:window-height="1017"
     id="namedview6"
     showgrid="false"
     inkscape:zoom="14.75"
     inkscape:cx="8"
     inkscape:cy="8"
     inkscape:window-x="-8"
     inkscape:window-y="-8"
     inkscape:window-maximized="1"
     inkscape:current-layer="svg4" />
  <path
     style="line-height:normal;font-variant-ligatures:normal;font-variant-position:normal;font-variant-caps:normal;font-variant-numeric:normal;font-variant-alternates:normal;font-feature-settings:normal;text-indent:0;text-align:start;text-decoration:none;text-decoration-line:none;text-decoration-style:solid;text-decoration-color:#000000;text-transform:none;text-orientation:mixed;shape-padding:0;isolation:auto;mix-blend-mode:normal;fill:#808080;fill-opacity:1;stroke-width:0.80000001;marker:none"
     d="m 3.8054362,0.61023622 c -1.0064,0.012 -1.7432,-0.024 -2.3456,0.308 A 1.504,1.504 0 0 0 0.79023622,1.7166362 c -0.132,0.3496 -0.18,0.768 -0.18,1.2936 v 1.6 H 1.4102362 v -1.6 c 0,-0.4736 0.0504,-0.8048 0.128,-1.0128 0.0784,-0.208 0.1608,-0.2968 0.308,-0.3776 0.292,-0.1616 0.956,-0.1976 1.964,-0.2096 h 0.8 V 0.61023622 h -0.8016 z"
     id="path4520"
     inkscape:connector-curvature="0" />
  <path
     style="line-height:normal;font-variant-ligatures:normal;font-variant-position:normal;font-variant-caps:normal;font-variant-numeric:normal;font-variant-alternates:normal;font-feature-settings:normal;text-indent:0;text-align:start;text-decoration:none;text-decoration-line:none;text-decoration-style:solid;text-decoration-color:#000000;text-transform:none;text-orientation:mixed;shape-padding:0;isolation:auto;mix-blend-mode:normal;fill:#808080;fill-opacity:1;stroke-width:0.80000001;marker:none"
     d="M 11.389764,0.61023622 V 1.4102362 h 0.8 c 1.0064,0.012 1.6696,0.048 1.9624,0.2096 0.1464,0.08 0.232,0.1696 0.3096,0.3776 0.0776,0.208 0.128,0.5392 0.128,1.0128 v 1.6 h 0.8 v -1.6 c 0,-0.5264 -0.048,-0.9432 -0.18,-1.2936 a 1.504,1.504 0 0 0 -0.6704,-0.79839998 c -0.6016,-0.3328 -1.3384,-0.296 -2.3448,-0.308 h -0.0032 z"
     id="path4518"
     inkscape:connector-curvature="0" />
  <path
     style="line-height:normal;font-variant-ligatures:normal;font-variant-position:normal;font-variant-caps:normal;font-variant-numeric:normal;font-variant-alternates:normal;font-feature-settings:normal;text-indent:0;text-align:start;text-decoration:none;text-decoration-line:none;text-decoration-style:solid;text-decoration-color:#000000;text-transform:none;text-orientation:mixed;shape-padding:0;isolation:auto;mix-blend-mode:normal;fill:#808080;fill-opacity:1;stroke-width:0.80000001;marker:none"
     d="m 0.61023622,11.389764 v 1.6 c 0,0.5264 0.048,0.9432 0.18,1.2936 0.1312,0.3512 0.36879998,0.632 0.66959998,0.7984 0.6024,0.3328 1.3392,0.296 2.3456,0.308 h 0.8048 v -0.8 h -0.8 c -1.0072,-0.012 -1.672,-0.048 -1.964,-0.2096 -0.1472,-0.08 -0.2296,-0.1696 -0.308,-0.3776 -0.0776,-0.208 -0.128,-0.5392 -0.128,-1.0128 v -1.6 z"
     id="path4516"
     inkscape:connector-curvature="0" />
  <path
     style="line-height:normal;font-variant-ligatures:normal;font-variant-position:normal;font-variant-caps:normal;font-variant-numeric:normal;font-variant-alternates:normal;font-feature-settings:normal;text-indent:0;text-align:start;text-decoration:none;text-decoration-line:none;text-decoration-style:solid;text-decoration-color:#000000;text-transform:none;text-orientation:mixed;shape-padding:0;isolation:auto;mix-blend-mode:normal;fill:#808080;fill-opacity:1;stroke-width:0.80000001;marker:none"
     d="m 14.589764,11.389764 v 1.6 c 0,0.4736 -0.0504,0.8048 -0.128,1.0128 -0.0784,0.208 -0.1616,0.2968 -0.308,0.3776 -0.2928,0.1616 -0.9576,0.1976 -1.964,0.2096 h -0.8 v 0.8 h 0.8048 c 1.0064,-0.012 1.7432,0.024 2.3456,-0.308 a 1.504,1.504 0 0 0 0.6696,-0.7984 c 0.132,-0.3504 0.18,-0.768 0.18,-1.2936 v -1.6 z"
     id="path2"
     inkscape:connector-curvature="0" />
</svg>
