<?xml version="1.0" encoding="UTF-8" standalone="no"?>
<svg
   xmlns:dc="http://purl.org/dc/elements/1.1/"
   xmlns:cc="http://creativecommons.org/ns#"
   xmlns:rdf="http://www.w3.org/1999/02/22-rdf-syntax-ns#"
   xmlns:svg="http://www.w3.org/2000/svg"
   xmlns="http://www.w3.org/2000/svg"
   xmlns:sodipodi="http://sodipodi.sourceforge.net/DTD/sodipodi-0.dtd"
   xmlns:inkscape="http://www.inkscape.org/namespaces/inkscape"
   height="512pt"
   viewBox="-79 0 512 512"
   width="512pt"
   version="1.1"
   id="svg52"
   sodipodi:docname="export_jdx.svg"
   inkscape:version="0.92.3 (2405546, 2018-03-11)">
  <metadata
     id="metadata58">
    <rdf:RDF>
      <cc:Work
         rdf:about="">
        <dc:format>image/svg+xml</dc:format>
        <dc:type
           rdf:resource="http://purl.org/dc/dcmitype/StillImage" />
      </cc:Work>
    </rdf:RDF>
  </metadata>
  <defs
     id="defs56" />
  <sodipodi:namedview
     pagecolor="#ffffff"
     bordercolor="#666666"
     borderopacity="1"
     objecttolerance="10"
     gridtolerance="10"
     guidetolerance="10"
     inkscape:pageopacity="0"
     inkscape:pageshadow="2"
     inkscape:window-width="1855"
     inkscape:window-height="1056"
     id="namedview54"
     showgrid="false"
     inkscape:measure-start="0,0"
     inkscape:measure-end="0,0"
     inkscape:zoom="0.69140625"
     inkscape:cx="388.44078"
     inkscape:cy="453.91476"
     inkscape:window-x="1985"
     inkscape:window-y="24"
     inkscape:window-maximized="1"
     inkscape:current-layer="svg52" />
  <path
     d="m353.101562 485.515625h-353.101562v-485.515625h273.65625l79.445312 79.449219zm0 0"
     fill="#e3e4d8"
     id="path2" />
  <path
     d="m273.65625 0v79.449219h79.445312zm0 0"
     fill="#d0cebd"
     id="path4" />
  <path
     d="m0 353.101562h353.101562v158.898438h-353.101562zm0 0"
     fill="#4e74ba"
     id="path6"
     style="fill:#4f4eba;fill-opacity:1" />
  <g
     fill="#a09893"
     id="g38">
    <path
       d="m123.585938 229.515625h-70.621094c-4.871094 0-8.828125-3.953125-8.828125-8.824219 0-4.875 3.957031-8.828125 8.828125-8.828125h70.621094c4.875 0 8.828124 3.953125 8.828124 8.828125 0 4.871094-3.953124 8.824219-8.828124 8.824219zm0 0"
       id="path8" />
    <path
       d="m247.171875 229.515625h-88.273437c-4.875 0-8.828126-3.953125-8.828126-8.824219 0-4.875 3.953126-8.828125 8.828126-8.828125h88.273437c4.875 0 8.828125 3.953125 8.828125 8.828125 0 4.871094-3.953125 8.824219-8.828125 8.824219zm0 0"
       id="path10" />
    <path
       d="m220.691406 264.828125h-97.105468c-4.871094 0-8.828126-3.957031-8.828126-8.828125s3.957032-8.828125 8.828126-8.828125h97.105468c4.871094 0 8.824219 3.957031 8.824219 8.828125s-3.953125 8.828125-8.824219 8.828125zm0 0"
       id="path12" />
    <path
       d="m300.136719 229.515625h-17.652344c-4.875 0-8.828125-3.953125-8.828125-8.824219 0-4.875 3.953125-8.828125 8.828125-8.828125h17.652344c4.875 0 8.828125 3.953125 8.828125 8.828125 0 4.871094-3.953125 8.824219-8.828125 8.824219zm0 0"
       id="path14" />
    <path
       d="m300.136719 264.828125h-44.136719c-4.871094 0-8.828125-3.957031-8.828125-8.828125s3.957031-8.828125 8.828125-8.828125h44.136719c4.875 0 8.828125 3.957031 8.828125 8.828125s-3.953125 8.828125-8.828125 8.828125zm0 0"
       id="path16" />
    <path
       d="m88.277344 264.828125h-35.3125c-4.871094 0-8.828125-3.957031-8.828125-8.828125s3.957031-8.828125 8.828125-8.828125h35.3125c4.871094 0 8.824218 3.957031 8.824218 8.828125s-3.953124 8.828125-8.824218 8.828125zm0 0"
       id="path18" />
    <path
       d="m123.585938 300.136719h-70.621094c-4.871094 0-8.828125-3.953125-8.828125-8.828125 0-4.871094 3.957031-8.824219 8.828125-8.824219h70.621094c4.875 0 8.828124 3.953125 8.828124 8.824219 0 4.875-3.953124 8.828125-8.828124 8.828125zm0 0"
       id="path20" />
    <path
       d="m247.171875 300.136719h-88.273437c-4.875 0-8.828126-3.953125-8.828126-8.828125 0-4.871094 3.953126-8.824219 8.828126-8.824219h88.273437c4.875 0 8.828125 3.953125 8.828125 8.824219 0 4.875-3.953125 8.828125-8.828125 8.828125zm0 0"
       id="path22" />
    <path
       d="m300.136719 300.136719h-17.652344c-4.875 0-8.828125-3.953125-8.828125-8.828125 0-4.871094 3.953125-8.824219 8.828125-8.824219h17.652344c4.875 0 8.828125 3.953125 8.828125 8.824219 0 4.875-3.953125 8.828125-8.828125 8.828125zm0 0"
       id="path24" />
    <path
       d="m300.136719 194.207031h-70.621094c-4.871094 0-8.824219-3.953125-8.824219-8.828125 0-4.871094 3.953125-8.828125 8.824219-8.828125h70.621094c4.875 0 8.828125 3.957031 8.828125 8.828125 0 4.875-3.953125 8.828125-8.828125 8.828125zm0 0"
       id="path26" />
    <path
       d="m194.207031 194.207031h-88.277343c-4.871094 0-8.828126-3.953125-8.828126-8.828125 0-4.871094 3.957032-8.828125 8.828126-8.828125h88.277343c4.871094 0 8.828125 3.957031 8.828125 8.828125 0 4.875-3.957031 8.828125-8.828125 8.828125zm0 0"
       id="path28" />
    <path
       d="m229.515625 158.898438h-97.101563c-4.875 0-8.828124-3.957032-8.828124-8.828126 0-4.875 3.953124-8.828124 8.828124-8.828124h97.101563c4.875 0 8.828125 3.953124 8.828125 8.828124 0 4.871094-3.953125 8.828126-8.828125 8.828126zm0 0"
       id="path30" />
    <path
       d="m70.621094 194.207031h-17.65625c-4.871094 0-8.828125-3.953125-8.828125-8.828125 0-4.871094 3.957031-8.828125 8.828125-8.828125h17.65625c4.871094 0 8.828125 3.957031 8.828125 8.828125 0 4.875-3.957031 8.828125-8.828125 8.828125zm0 0"
       id="path32" />
    <path
       d="m97.101562 158.898438h-44.136718c-4.871094 0-8.828125-3.957032-8.828125-8.828126 0-4.875 3.957031-8.828124 8.828125-8.828124h44.136718c4.875 0 8.828126 3.953124 8.828126 8.828124 0 4.871094-3.953126 8.828126-8.828126 8.828126zm0 0"
       id="path34" />
    <path
       d="m300.136719 158.898438h-35.308594c-4.875 0-8.828125-3.957032-8.828125-8.828126 0-4.875 3.953125-8.828124 8.828125-8.828124h35.308594c4.875 0 8.828125 3.953124 8.828125 8.828124 0 4.871094-3.953125 8.828126-8.828125 8.828126zm0 0"
       id="path36" />
  </g>
  <g
     aria-label="J D X"
     style="font-style:normal;font-weight:normal;font-size:30px;line-height:1.25;font-family:sans-serif;letter-spacing:0px;word-spacing:0px;fill:#ffffff;fill-opacity:1;stroke:none;stroke-width:0.75"
     id="text870">
    <path
       d="m 97.759686,449.28079 q 0,7 -1.54,13.02 -1.4,6.02 -5.18,10.64 -3.64,4.48 -9.94,7.14 -6.16,2.52 -15.54,2.52 -4.76,0 -8.82,-0.84 -3.92,-0.7 -7.14,-1.82 -3.22,-1.26 -5.6,-2.52 -2.38,-1.4 -3.78,-2.66 l 5.32,-10.78 q 2.94,2.1 7.56,4.48 4.76,2.24 11.76,2.24 10.08,0 14.7,-5.04 4.62,-5.18 4.62,-17.64 v -64.54 h 13.58 z"
       style="font-style:normal;font-variant:normal;font-weight:normal;font-stretch:normal;font-size:140px;font-family:Ubuntu;-inkscape-font-specification:Ubuntu;fill:#ffffff;fill-opacity:1;stroke-width:0.75"
       id="path880" />
    <path
       d="m 210.01844,431.92079 q 0,12.6 -3.92,21.98 -3.92,9.24 -11.06,15.4 -7.14,6.02 -17.08,9.1 -9.94,2.94 -21.84,2.94 -5.88,0 -13.02,-0.56 -7,-0.42 -12.74,-1.82 v -94.08 q 5.74,-1.4 12.74,-1.82 7.14,-0.56 13.02,-0.56 11.9,0 21.84,3.08 9.94,2.94 17.08,9.1 7.14,6.02 11.06,15.4 3.92,9.24 3.92,21.84 z m -52.78,37.52 q 19.32,0 28.84,-9.8 9.52,-9.94 9.52,-27.72 0,-17.78 -9.52,-27.58 -9.52,-9.94 -28.84,-9.94 -5.74,0 -8.96,0.14 -3.08,0.14 -4.34,0.28 v 74.2 q 1.26,0.14 4.34,0.28 3.22,0.14 8.96,0.14 z"
       style="font-style:normal;font-variant:normal;font-weight:normal;font-stretch:normal;font-size:140px;font-family:Ubuntu;-inkscape-font-specification:Ubuntu;fill:#ffffff;fill-opacity:1;stroke-width:0.75"
       id="path882" />
    <path
       d="m 297.62187,480.50079 q -2.1,-4.2 -5.04,-9.24 -2.94,-5.18 -6.44,-10.64 -3.5,-5.6 -7.28,-11.06 -3.78,-5.6 -7.28,-10.5 -3.5,4.9 -7.28,10.5 -3.78,5.46 -7.28,11.06 -3.36,5.46 -6.44,10.64 -2.94,5.04 -5.04,9.24 h -14.98 q 6.3,-12.32 14.56,-25.06 8.4,-12.74 17.78,-26.18 l -31.08,-45.78 h 15.68 l 23.94,36.12 23.66,-36.12 h 15.54 l -30.52,45.22 q 9.52,13.58 17.92,26.46 8.4,12.88 14.84,25.34 z"
       style="font-style:normal;font-variant:normal;font-weight:normal;font-stretch:normal;font-size:140px;font-family:Ubuntu;-inkscape-font-specification:Ubuntu;fill:#ffffff;fill-opacity:1;stroke-width:0.75"
       id="path884" />
  </g>
</svg>
