<?xml version="1.0" encoding="UTF-8" standalone="no"?>
<!-- Created with Inkscape (http://www.inkscape.org/) -->

<svg
   xmlns:dc="http://purl.org/dc/elements/1.1/"
   xmlns:cc="http://creativecommons.org/ns#"
   xmlns:rdf="http://www.w3.org/1999/02/22-rdf-syntax-ns#"
   xmlns:svg="http://www.w3.org/2000/svg"
   xmlns="http://www.w3.org/2000/svg"
   xmlns:xlink="http://www.w3.org/1999/xlink"
   xmlns:sodipodi="http://sodipodi.sourceforge.net/DTD/sodipodi-0.dtd"
   xmlns:inkscape="http://www.inkscape.org/namespaces/inkscape"
   version="1.0"
   width="48"
   height="48"
   id="svg2"
   sodipodi:docname="method-editor.svg"
   inkscape:version="0.92.4 (5da689c313, 2019-01-14)">
  <metadata
     id="metadata40">
    <rdf:RDF>
      <cc:Work
         rdf:about="">
        <dc:format>image/svg+xml</dc:format>
        <dc:type
           rdf:resource="http://purl.org/dc/dcmitype/StillImage" />
        <dc:title></dc:title>
      </cc:Work>
    </rdf:RDF>
  </metadata>
  <sodipodi:namedview
     pagecolor="#ffffff"
     bordercolor="#666666"
     borderopacity="1"
     objecttolerance="10"
     gridtolerance="10"
     guidetolerance="10"
     inkscape:pageopacity="0"
     inkscape:pageshadow="2"
     inkscape:window-width="1920"
     inkscape:window-height="1017"
     id="namedview38"
     showgrid="false"
     inkscape:zoom="9.8333333"
     inkscape:cx="32.050745"
     inkscape:cy="18.402759"
     inkscape:window-x="-8"
     inkscape:window-y="-8"
     inkscape:window-maximized="1"
     inkscape:current-layer="svg2" />
  <defs
     id="defs4">
    <linearGradient
       id="linearGradient3846">
      <stop
         id="stop3848"
         style="stop-color:#a68b60;stop-opacity:1"
         offset="0" />
      <stop
         id="stop3850"
         style="stop-color:#9b784b;stop-opacity:1"
         offset="1" />
    </linearGradient>
    <linearGradient
       x1="25.132275"
       y1="6.7287393"
       x2="25.132275"
       y2="47.013336"
       id="linearGradient4545"
       xlink:href="#linearGradient3846"
       gradientUnits="userSpaceOnUse"
       gradientTransform="matrix(0.65146904,0,0,0.58668844,0.02089751,5.4664744)" />
    <linearGradient
       id="linearGradient3600">
      <stop
         id="stop3602"
         style="stop-color:#f4f4f4;stop-opacity:1"
         offset="0" />
      <stop
         id="stop3604"
         style="stop-color:#dbdbdb;stop-opacity:1"
         offset="1" />
    </linearGradient>
    <linearGradient
       id="linearGradient3931">
      <stop
         id="stop3933"
         style="stop-color:#747671;stop-opacity:1"
         offset="0" />
      <stop
         id="stop3935"
         style="stop-color:#cbcbcb;stop-opacity:1"
         offset="1" />
    </linearGradient>
    <linearGradient
       x1="25.132275"
       y1="6.7287393"
       x2="25.132275"
       y2="47.013336"
       id="linearGradient3192"
       xlink:href="#linearGradient3600"
       gradientUnits="userSpaceOnUse"
       gradientTransform="matrix(0.6514566,0,0,0.58668864,2.5633455,8.8834166)" />
    <linearGradient
       x1="-64.247643"
       y1="14.969027"
       x2="-22.573992"
       y2="-19.797691"
       id="linearGradient3194"
       xlink:href="#linearGradient3931"
       gradientUnits="userSpaceOnUse"
       gradientTransform="matrix(0.52604916,0,0,0.54905328,41.266531,8.2295627)" />
    <linearGradient
       id="linearGradient3269">
      <stop
         id="stop3271"
         style="stop-color:#787878;stop-opacity:1"
         offset="0" />
      <stop
         id="stop3273"
         style="stop-color:#bebebe;stop-opacity:1"
         offset="0.34446934" />
      <stop
         id="stop3275"
         style="stop-color:#c8c8c8;stop-opacity:1"
         offset="0.3731544" />
      <stop
         id="stop3277"
         style="stop-color:#e6e6e6;stop-opacity:1"
         offset="0.48990577" />
      <stop
         id="stop3279"
         style="stop-color:#8c8c8c;stop-opacity:1"
         offset="1" />
    </linearGradient>
    <linearGradient
       id="linearGradient3257">
      <stop
         id="stop3261"
         style="stop-color:#787878;stop-opacity:1"
         offset="0" />
      <stop
         id="stop3263"
         style="stop-color:#828282;stop-opacity:1"
         offset="0.36563665" />
      <stop
         id="stop3265"
         style="stop-color:#aaaaaa;stop-opacity:1"
         offset="0.46209824" />
      <stop
         id="stop3922"
         style="stop-color:#6a6a6a;stop-opacity:1"
         offset="0.59657371" />
      <stop
         id="stop3920"
         style="stop-color:#787878;stop-opacity:1"
         offset="0.73104912" />
      <stop
         id="stop3267"
         style="stop-color:#464646;stop-opacity:1"
         offset="1" />
    </linearGradient>
    <linearGradient
       x1="321.40091"
       y1="83.497276"
       x2="321.57819"
       y2="96.245491"
       id="linearGradient2964"
       xlink:href="#linearGradient3269"
       gradientUnits="userSpaceOnUse"
       gradientTransform="matrix(0.49241474,0,0,0.61547336,-137.81841,-48.040139)" />
    <linearGradient
       x1="22.451862"
       y1="26.645382"
       x2="22.451862"
       y2="40.185558"
       id="linearGradient2966"
       xlink:href="#linearGradient3257"
       gradientUnits="userSpaceOnUse"
       gradientTransform="matrix(0.49418944,0,0,0.61538486,7.9091524,-13.570684)" />
    <radialGradient
       cx="62.625"
       cy="4.625"
       r="10.625"
       fx="62.625"
       fy="4.625"
       id="radialGradient2506"
       xlink:href="#linearGradient8838"
       gradientUnits="userSpaceOnUse"
       gradientTransform="matrix(0.88331623,-0.52885221,0.14345012,0.23959779,-18.305164,66.518275)" />
    <linearGradient
       id="linearGradient8838">
      <stop
         id="stop8840"
         style="stop-color:black;stop-opacity:1"
         offset="0" />
      <stop
         id="stop8842"
         style="stop-color:black;stop-opacity:0"
         offset="1" />
    </linearGradient>
    <linearGradient
       x1="-172.65306"
       y1="99.667191"
       x2="-164.71831"
       y2="91.972626"
       id="linearGradient2541"
       xlink:href="#linearGradient11114-516"
       gradientUnits="userSpaceOnUse"
       gradientTransform="matrix(0.1953514,0,0,0.1799097,99.027096,10.227117)" />
    <linearGradient
       id="linearGradient11114-516">
      <stop
         id="stop3372"
         style="stop-color:#242424;stop-opacity:0.99215686"
         offset="0" />
      <stop
         id="stop3374"
         style="stop-color:#656565;stop-opacity:1"
         offset="1" />
    </linearGradient>
    <linearGradient
       x1="32.892574"
       y1="27.988184"
       x2="31.364458"
       y2="29.484051"
       id="linearGradient2543"
       xlink:href="#linearGradient3277-442"
       gradientUnits="userSpaceOnUse"
       gradientTransform="matrix(0.5018785,0,0,0.462207,48.645157,13.021424)" />
    <linearGradient
       id="linearGradient3277-442">
      <stop
         id="stop3378"
         style="stop-color:#575757;stop-opacity:1"
         offset="0" />
      <stop
         id="stop3380"
         style="stop-color:#333;stop-opacity:1"
         offset="1" />
    </linearGradient>
    <linearGradient
       x1="212.04402"
       y1="123.74026"
       x2="210.58083"
       y2="74.261711"
       id="linearGradient2538"
       xlink:href="#linearGradient3294"
       gradientUnits="userSpaceOnUse"
       gradientTransform="matrix(0.1953514,0,0,0.1799097,23.802387,11.965774)" />
    <linearGradient
       id="linearGradient3294">
      <stop
         id="stop3296"
         style="stop-color:white;stop-opacity:0.19520548"
         offset="0" />
      <stop
         id="stop3298"
         style="stop-color:white;stop-opacity:0"
         offset="1" />
    </linearGradient>
    <radialGradient
       cx="18.240929"
       cy="21.817987"
       r="8.3085051"
       fx="18.240929"
       fy="21.817987"
       id="radialGradient2514"
       xlink:href="#linearGradient4454-600"
       gradientUnits="userSpaceOnUse"
       gradientTransform="matrix(0.7030485,0,0,0.6866873,45.787793,6.6269116)" />
    <linearGradient
       id="linearGradient4454-600">
      <stop
         id="stop3408"
         style="stop-color:white;stop-opacity:0.64726025"
         offset="0" />
      <stop
         id="stop3410"
         style="stop-color:white;stop-opacity:0.19520548"
         offset="1" />
    </linearGradient>
    <radialGradient
       cx="15.414371"
       cy="13.078408"
       r="6.65625"
       fx="15.414371"
       fy="13.078408"
       id="radialGradient2533"
       xlink:href="#linearGradient4467-402"
       gradientUnits="userSpaceOnUse"
       gradientTransform="matrix(1.4500546,0,0,1.1280465,33.745367,1.212039)" />
    <linearGradient
       id="linearGradient4467-402">
      <stop
         id="stop3390"
         style="stop-color:white;stop-opacity:1"
         offset="0" />
      <stop
         id="stop3392"
         style="stop-color:white;stop-opacity:0.24761905"
         offset="1" />
    </linearGradient>
    <linearGradient
       x1="173.09576"
       y1="75.31868"
       x2="173.09576"
       y2="11.949074"
       id="linearGradient2528"
       xlink:href="#linearGradient2300-465"
       gradientUnits="userSpaceOnUse"
       gradientTransform="matrix(0.1906508,0,0,0.1908549,24.857567,11.243654)" />
    <linearGradient
       id="linearGradient2300-465">
      <stop
         id="stop3396"
         style="stop-color:#343434;stop-opacity:0.97647059"
         offset="0" />
      <stop
         id="stop3398"
         style="stop-color:#929292;stop-opacity:1"
         offset="1" />
    </linearGradient>
    <linearGradient
       x1="41.541653"
       y1="68.291702"
       x2="41.485142"
       y2="4.5362983"
       id="linearGradient2530"
       xlink:href="#linearGradient11104-770"
       gradientUnits="userSpaceOnUse"
       gradientTransform="matrix(0.1906508,0,0,0.1908549,49.587104,12.68001)" />
    <linearGradient
       id="linearGradient11104-770">
      <stop
         id="stop3402"
         style="stop-color:#333;stop-opacity:1"
         offset="0" />
      <stop
         id="stop3404"
         style="stop-color:#333;stop-opacity:0.6122449"
         offset="1" />
    </linearGradient>
    <linearGradient
       x1="173.09576"
       y1="75.31868"
       x2="173.09576"
       y2="11.949074"
       id="linearGradient2525"
       xlink:href="#linearGradient6209-717"
       gradientUnits="userSpaceOnUse"
       gradientTransform="matrix(0.1815664,0,0,0.1817607,26.480284,11.525908)" />
    <linearGradient
       id="linearGradient6209-717">
      <stop
         id="stop3366"
         style="stop-color:#979797;stop-opacity:1"
         offset="0" />
      <stop
         id="stop3368"
         style="stop-color:black;stop-opacity:0.34117648"
         offset="1" />
    </linearGradient>
    <linearGradient
       x1="23.575972"
       y1="25.356892"
       x2="23.575972"
       y2="31.210939"
       id="linearGradient8639"
       xlink:href="#linearGradient3155-40"
       gradientUnits="userSpaceOnUse"
       gradientTransform="matrix(0.415777,-0.4174938,0.518983,0.5146192,-15.747227,2.6503673)"
       spreadMethod="pad" />
    <linearGradient
       id="linearGradient3155-40">
      <stop
         id="stop2541"
         style="stop-color:#181818;stop-opacity:1"
         offset="0" />
      <stop
         id="stop2543"
         style="stop-color:#dbdbdb;stop-opacity:1"
         offset="0.13482948" />
      <stop
         id="stop2545"
         style="stop-color:#a4a4a4;stop-opacity:1"
         offset="0.20224422" />
      <stop
         id="stop2547"
         style="stop-color:white;stop-opacity:1"
         offset="0.26965895" />
      <stop
         id="stop2549"
         style="stop-color:#8d8d8d;stop-opacity:1"
         offset="0.44650277" />
      <stop
         id="stop2551"
         style="stop-color:#959595;stop-opacity:1"
         offset="0.57114136" />
      <stop
         id="stop2553"
         style="stop-color:#cecece;stop-opacity:1"
         offset="0.72038066" />
      <stop
         id="stop2555"
         style="stop-color:#181818;stop-opacity:1"
         offset="1" />
    </linearGradient>
    <linearGradient
       x1="30.037716"
       y1="24.989594"
       x2="30.037716"
       y2="30.000141"
       id="linearGradient8641"
       xlink:href="#linearGradient3240-279"
       gradientUnits="userSpaceOnUse"
       gradientTransform="matrix(0.4040235,-0.4056919,0.6073752,0.6022679,-17.867764,0.6930272)" />
    <linearGradient
       id="linearGradient3240-279">
      <stop
         id="stop2559"
         style="stop-color:#565656;stop-opacity:1"
         offset="0" />
      <stop
         id="stop2561"
         style="stop-color:#9a9a9a;stop-opacity:1"
         offset="0.5" />
      <stop
         id="stop2563"
         style="stop-color:#545454;stop-opacity:1"
         offset="1" />
    </linearGradient>
    <linearGradient
       x1="30.037716"
       y1="24.989594"
       x2="30.037716"
       y2="30.000141"
       id="linearGradient8643"
       xlink:href="#linearGradient3223-789"
       gradientUnits="userSpaceOnUse"
       gradientTransform="matrix(0.4040235,-0.4056919,0.6073752,0.6022679,-17.983472,0.8092126)" />
    <linearGradient
       id="linearGradient3223-789">
      <stop
         id="stop2567"
         style="stop-color:#b1b1b1;stop-opacity:1"
         offset="0" />
      <stop
         id="stop2569"
         style="stop-color:white;stop-opacity:1"
         offset="0.5" />
      <stop
         id="stop2571"
         style="stop-color:#8f8f8f;stop-opacity:1"
         offset="1" />
    </linearGradient>
    <linearGradient
       x1="30.037716"
       y1="24.989594"
       x2="30.037716"
       y2="30.000141"
       id="linearGradient8645"
       xlink:href="#linearGradient3240-279"
       gradientUnits="userSpaceOnUse"
       gradientTransform="matrix(0.4040235,-0.4056919,0.6073752,0.6022679,-17.465684,0.2892868)" />
    <linearGradient
       x1="30.037716"
       y1="24.989594"
       x2="30.037716"
       y2="30.000141"
       id="linearGradient8647"
       xlink:href="#linearGradient3223-789"
       gradientUnits="userSpaceOnUse"
       gradientTransform="matrix(0.4040235,-0.4056919,0.6073752,0.6022679,-17.581392,0.4054707)" />
    <linearGradient
       x1="30.037716"
       y1="24.989594"
       x2="30.037716"
       y2="30.000141"
       id="linearGradient8649"
       xlink:href="#linearGradient3240-279"
       gradientUnits="userSpaceOnUse"
       gradientTransform="matrix(0.4040235,-0.4056919,0.6073752,0.6022679,-17.061661,-0.1164056)" />
    <linearGradient
       x1="30.037716"
       y1="24.989594"
       x2="30.037716"
       y2="30.000141"
       id="linearGradient8651"
       xlink:href="#linearGradient3223-789"
       gradientUnits="userSpaceOnUse"
       gradientTransform="matrix(0.4040235,-0.4056919,0.6073752,0.6022679,-17.177369,-2.1969969e-4)" />
    <linearGradient
       x1="9"
       y1="29.056757"
       x2="9"
       y2="26.02973"
       id="linearGradient8653"
       xlink:href="#linearGradient3290-678"
       gradientUnits="userSpaceOnUse"
       gradientTransform="matrix(0.4040235,-0.4056919,0.6073752,0.602268,-17.636692,0.462492)" />
    <linearGradient
       id="linearGradient3290-678">
      <stop
         id="stop2607"
         style="stop-color:#ece5a5;stop-opacity:1"
         offset="0" />
      <stop
         id="stop2609"
         style="stop-color:#fcfbf2;stop-opacity:1"
         offset="1" />
    </linearGradient>
    <linearGradient
       x1="5.5178981"
       y1="37.371799"
       x2="9.5220556"
       y2="41.391716"
       id="linearGradient8655"
       xlink:href="#linearGradient3191-577"
       gradientUnits="userSpaceOnUse"
       gradientTransform="matrix(0.3763801,0.03615261,0.03669995,0.374874,-2.2182805,-1.1331002)" />
    <linearGradient
       id="linearGradient3191-577">
      <stop
         id="stop2613"
         style="stop-color:#dbce48;stop-opacity:1"
         offset="0" />
      <stop
         id="stop2615"
         style="stop-color:#c5b625;stop-opacity:1"
         offset="1" />
    </linearGradient>
  </defs>
  <path
     style="display:inline;overflow:visible;visibility:visible;opacity:0.2;fill:url(#radialGradient2506);fill-opacity:1;fill-rule:evenodd;stroke:none;stroke-width:0.91797966;marker:none"
     id="path8836"
     d="M 47.061208,28.887991 A 2.9671206,10.938758 59.090528 1 1 28.290737,40.126101 2.9671206,10.938758 59.090528 1 1 47.061208,28.887991 Z"
     inkscape:connector-curvature="0" />
  <path
     inkscape:connector-curvature="0"
     style="display:inline;fill:url(#linearGradient4545);fill-opacity:1;stroke:#876b47;stroke-width:1.19897807;stroke-linecap:butt;stroke-linejoin:round;stroke-miterlimit:4;stroke-dasharray:none;stroke-dashoffset:0;stroke-opacity:1"
     id="rect2594"
     d="m 4.2554212,6.3464836 31.2010218,5.16e-4 V 45.946988 H 4.2554212 Z" />
  <path
     inkscape:connector-curvature="0"
     style="display:inline;opacity:0.2;fill:none;stroke:#ffffff;stroke-width:1.19897807;stroke-linecap:butt;stroke-linejoin:round;stroke-miterlimit:4;stroke-dasharray:none;stroke-dashoffset:0;stroke-opacity:1"
     id="path3852"
     d="M 5.4559322,7.5464764 H 34.255932 V 44.746477 H 5.4559322 Z" />
  <path
     inkscape:connector-curvature="0"
     style="display:inline;fill:url(#linearGradient3192);fill-opacity:1;stroke:url(#linearGradient3194);stroke-width:1.19896674;stroke-linecap:butt;stroke-linejoin:round;stroke-miterlimit:4;stroke-dasharray:none;stroke-dashoffset:0;stroke-opacity:1"
     id="path3064"
     d="m 6.7977891,9.7634256 26.4005159,5.16e-4 V 42.163944 H 6.7977891 Z" />
  <path
     inkscape:connector-curvature="0"
     style="display:inline;opacity:0.7;fill:#666666;fill-opacity:1;stroke:none;stroke-width:1.20000005"
     id="path2950"
     d="m 9.7983051,13.963942 h 1.6314459 v 1.2 H 9.7983051 Z m 1.8536749,0 h 1.539341 v 1.2 H 11.65198 Z m 1.76157,0 h 1.355122 v 1.2 H 13.41355 Z m 1.577349,0 h 0.595228 v 1.2 h -0.595228 z m 0.817464,0 h 1.33209 v 1.2 h -1.33209 z m 1.554327,0 h 3.450578 v 1.2 H 17.36269 Z m 3.672808,0 h 2.621607 v 1.2 h -2.621607 z m -11.2371929,7.2 H 11.3764 v 1.2 H 9.7983051 Z m 1.7930559,0 h 1.489002 v 1.2 h -1.489002 z m 1.703965,0 h 1.310805 v 1.2 h -1.310805 z m 1.525766,0 h 0.575762 v 1.2 h -0.575762 z m 0.790732,0 h 1.288527 v 1.2 h -1.288527 z m 1.503496,0 h 3.337739 v 1.2 H 17.11532 Z m 3.552701,0 h 2.535875 v 1.2 h -2.535875 z m 2.750844,0 h 0.776223 v 1.2 h -0.776223 z m 0.991192,0 h 1.533545 v 1.2 H 24.410057 Z M 9.7983051,16.363944 h 2.4467799 v 1.2 H 9.7983051 Z m 2.6701009,0 h 1.177159 v 1.2 h -1.177159 z m 1.40048,0 h 0.553484 v 1.2 h -0.553484 z m 0.776807,0 h 1.065791 v 1.2 h -1.065791 z m 1.289105,0 h 1.065789 v 1.2 h -1.065789 z m 1.289109,0 h 1.711735 v 1.2 h -1.711735 z m 1.935051,0 h 2.246317 v 1.2 h -2.246317 z m 2.469638,0 h 1.511268 v 1.2 h -1.511268 z m 1.73459,0 h 0.353018 v 1.2 H 23.363186 Z M 9.7983051,18.763942 h 2.8031639 v 1.2 H 9.7983051 Z m 3.0229039,0 h 3.003623 v 1.2 h -3.003623 z m 3.223365,0 h 1.199436 v 1.2 h -1.199436 z m 1.419177,0 h 2.825434 v 1.2 h -2.825434 z m 5.199389,0 h 0.75395 v 1.2 h -0.75395 z m -2.154214,0 h 1.934472 v 1.2 h -1.934472 z m 3.127905,0 h 0.442116 v 1.2 h -0.442116 z m 0.661857,0 h 1.199436 v 1.2 H 24.298688 Z M 9.7983051,31.963944 H 12.60147 v 1.2 H 9.7983051 Z m 3.0229039,0 h 3.003625 v 1.2 h -3.003625 z m 3.223367,0 h 1.199436 v 1.2 h -1.199436 z m 1.419178,0 h 2.825434 v 1.2 h -2.825434 z m 5.19939,0 h 0.753951 v 1.2 h -0.753951 z m -2.154214,0 h 1.934473 v 1.2 H 20.50893 Z m 3.127906,0 h 0.442117 v 1.2 h -0.442117 z m 0.661857,0 h 1.199437 v 1.2 H 24.298693 Z M 9.7983051,25.963942 h 2.0235719 v 1.2 H 9.7983051 Z m 2.2385409,0 h 3.360011 v 1.2 h -3.360011 z m 3.574981,0 h 1.622637 v 1.2 h -1.622637 z m 3.563839,0 h 1.28853 v 1.2 h -1.28853 z m 1.503498,0 h 2.068122 v 1.2 h -2.068122 z m 2.283083,0 h 3.360018 v 1.2 h -3.360018 z m -5.512817,0 h 1.511276 v 1.2 H 17.44943 Z m -7.6511249,3.600002 h 2.5358759 v 1.2 H 9.7983051 Z m 2.7452739,0 h 0.798501 v 1.2 h -0.798501 z m 1.007896,0 h 1.823111 v 1.2 h -1.823111 z m 2.032506,0 h 1.243986 v 1.2 h -1.243986 z m 1.453383,0 h 1.243978 v 1.2 h -1.243978 z m 1.453381,0 h 1.800834 v 1.2 h -1.800834 z m 2.010222,0 h 0.375301 v 1.2 h -0.375301 z m 0.584697,0 h 2.335409 v 1.2 h -2.335409 z m 2.544806,0 h 1.243984 v 1.2 H 23.63047 Z m -13.8321649,4.8 h 1.0212409 v 1.2 H 9.7983051 Z m 1.2855309,0 h 3.716396 v 1.2 h -3.716396 z m 8.950495,0 H 19.01309 v 1.2 h 1.021241 z m -1.285531,0 h -3.716396 v 1.2 H 18.7488 Z" />
  <path
     inkscape:connector-curvature="0"
     style="display:inline;fill:url(#linearGradient2964);fill-opacity:1;stroke:url(#linearGradient2966);stroke-width:1.19792962;stroke-linecap:round;stroke-linejoin:round;stroke-miterlimit:4;stroke-dasharray:none;stroke-dashoffset:0.5;stroke-opacity:1;enable-background:new"
     id="path4675"
     d="m 17.456534,1.5368764 c 0.0552,2.21307 -0.221018,7.1870852 -2.179136,7.2669752 -0.286976,0.616198 -0.436441,2.0965294 0.261865,2.3426254 h 8.924962 c 0.565632,-0.224277 0.02347,-2.0501634 0,-2.2553374 -2.198122,-0.208674 -2.144527,-5.188994 -2.144527,-7.3542632 z" />
  <path
     inkscape:connector-curvature="0"
     style="fill:none;stroke:#ffffff;stroke-width:0.80514842;stroke-linecap:square;stroke-linejoin:round;stroke-miterlimit:4;stroke-dasharray:none;stroke-opacity:1"
     id="path3897"
     d="m 20.053357,3.9464769 a 0.19742578,0.19742578 0 1 1 -0.39485,0 0.19742578,0.19742578 0 1 1 0.39485,0 z" />
  <g
     transform="matrix(1.2360144,0,0,1.2390085,26.84029,20.129112)"
     id="g8626">
    <path
       inkscape:connector-curvature="0"
       d="m 2.0488085,11.037368 c 0.2865424,-0.207707 1.1479509,0.256388 1.9603385,1.061945 0.8104458,0.803629 1.2601996,1.641331 1.0575577,1.930575 -7.708e-4,0.0011 0.01977,0.01774 0.01898,0.01882 L 15.224149,3.8683779 C 15.481557,3.6099071 15.011041,2.7247557 14.172862,1.893626 13.334685,1.0624962 12.444681,0.59856571 12.187272,0.85703737 Z"
       id="rect2383"
       style="fill:url(#linearGradient8639);fill-opacity:1;stroke:#0c0c0c;stroke-width:0.48484433;stroke-linecap:butt;stroke-linejoin:round;stroke-miterlimit:4;stroke-dasharray:none;stroke-dashoffset:0;stroke-opacity:1" />
    <path
       inkscape:connector-curvature="0"
       d="m 10.565423,2.4840909 c 0.286542,-0.2077065 1.147951,0.2563879 1.960338,1.0619443 0.810445,0.8036291 1.260199,1.6413295 1.057557,1.9305744 -7.69e-4,0.0011 0.01977,0.017738 0.01898,0.018821 L 15.154234,3.9383089 C 15.562715,3.5297289 15.124956,2.8454879 14.172862,1.893626 13.360476,1.0880699 12.499066,0.6239749 12.212525,0.83168148 l -0.02525,0.0253559 -1.621849,1.62705352 z"
       id="rect3175"
       style="opacity:0.8;fill:#ffb6ed;fill-opacity:1;stroke:#e28ccd;stroke-width:0.48484433;stroke-linecap:butt;stroke-linejoin:round;stroke-miterlimit:4;stroke-dasharray:none;stroke-dashoffset:0;stroke-opacity:1" />
    <path
       inkscape:connector-curvature="0"
       d="m 2.0488079,11.037368 c 0.286543,-0.207708 1.1479512,0.256388 1.960339,1.061943 0.8104449,0.80363 1.2601992,1.641332 1.0575579,1.930577 -7.714e-4,0.0011 0.01977,0.01774 0.01898,0.01882 l 6.9820302,-7.0108637 0.02525,-0.025356 c 7.9e-4,-0.00108 -0.01975,-0.01772 -0.01898,-0.01882 C 12.276628,6.7044221 11.826873,5.8667226 11.01643,5.0630931 10.204041,4.2575368 9.3426319,3.7934425 9.0560897,4.0011493 l -0.025251,0.025355 z"
       id="path3208"
       style="opacity:0.6;fill:#0c0c0c;fill-opacity:1;stroke:none" />
    <path
       inkscape:connector-curvature="0"
       d="m 9.1785348,3.8767048 c 0.2865413,-0.2077068 1.1479522,0.2563879 1.9603392,1.0619443 0.810445,0.8036291 1.2602,1.6413294 1.057556,1.9305753 -7.71e-4,0.0011 0.01977,0.017736 0.01898,0.01882 l 0.126256,-0.1267795 c 7.9e-4,-0.00108 -0.01975,-0.01772 -0.01898,-0.01882 C 12.525331,6.4531992 12.075576,5.6154986 11.26513,4.8118704 10.452743,4.0063135 9.5913335,3.542219 9.3047918,3.7499256 Z"
       id="path3233"
       style="fill:url(#linearGradient8641);fill-opacity:1;stroke:none" />
    <path
       inkscape:connector-curvature="0"
       d="m 9.0628273,3.9928895 c 0.2865436,-0.2077068 1.1479527,0.2563878 1.9603397,1.061944 0.810444,0.8036294 1.2602,1.6413292 1.057556,1.9305742 -7.71e-4,0.0011 0.01977,0.017738 0.01898,0.018822 L 12.22596,6.8774498 c 7.9e-4,-0.00108 -0.01975,-0.017721 -0.01898,-0.018821 C 12.409623,6.569384 11.95987,5.7316836 11.149423,4.9280545 10.337036,4.1224982 9.4756273,3.6584033 9.1890844,3.8661101 Z"
       id="path3216"
       style="fill:url(#linearGradient8643);fill-opacity:1;stroke:none" />
    <path
       inkscape:connector-curvature="0"
       d="m 9.5806143,3.4729643 c 0.2865426,-0.2077069 1.1479517,0.2563872 1.9603387,1.0619442 0.810446,0.803629 1.2602,1.6413292 1.057558,1.9305747 -7.73e-4,0.0011 0.01977,0.017737 0.01898,0.01882 l 0.126258,-0.1267784 c 7.91e-4,-0.00108 -0.01975,-0.017721 -0.01898,-0.01882 C 12.927411,6.0494594 12.477656,5.2117588 11.66721,4.4081298 10.854824,3.6025731 9.9934151,3.1384786 9.7068717,3.3461854 Z"
       id="path3248"
       style="fill:url(#linearGradient8645);fill-opacity:1;stroke:none" />
    <path
       inkscape:connector-curvature="0"
       d="m 9.4649071,3.5891488 c 0.2865435,-0.207707 1.1479529,0.2563877 1.9603379,1.061944 0.810447,0.8036298 1.260201,1.6413294 1.057558,1.9305748 -7.69e-4,0.0011 0.01977,0.017737 0.01898,0.018821 l 0.126257,-0.12678 c 7.9e-4,-0.00108 -0.01975,-0.01772 -0.01898,-0.01882 C 12.811705,6.1656438 12.361949,5.3279425 11.551504,4.5243147 10.739118,3.718758 9.877708,3.254663 9.5911645,3.46237 Z"
       id="path3250"
       style="fill:url(#linearGradient8647);fill-opacity:1;stroke:none" />
    <path
       inkscape:connector-curvature="0"
       d="M 9.9846388,3.0672723 C 10.27118,2.8595657 11.13259,3.3236601 11.944976,4.1292168 c 0.810446,0.8036288 1.260201,1.641329 1.057558,1.9305741 -7.7e-4,0.0011 0.01977,0.017738 0.01898,0.018821 L 13.14777,5.9518328 c 7.92e-4,-0.00108 -0.01975,-0.017721 -0.01898,-0.018821 C 13.331434,5.6437674 12.881679,4.8060668 12.071233,4.0024374 11.258848,3.1968815 10.397438,2.7327869 10.110895,2.9404937 Z"
       id="path3256"
       style="fill:url(#linearGradient8649);fill-opacity:1;stroke:none" />
    <path
       inkscape:connector-curvature="0"
       d="m 9.8689318,3.1834569 c 0.2865412,-0.2077072 1.1479512,0.2563879 1.9603392,1.0619447 0.810444,0.8036283 1.260198,1.6413291 1.057556,1.9305739 -7.71e-4,0.0011 0.01977,0.017737 0.01898,0.018821 l 0.126258,-0.1267782 c 7.89e-4,-0.00108 -0.01975,-0.017722 -0.01898,-0.018821 C 13.215727,5.7599515 12.765972,4.9222512 11.955527,4.1186224 11.143141,3.313066 10.281731,2.848971 9.9951884,3.0566783 Z"
       id="path3258"
       style="fill:url(#linearGradient8651);fill-opacity:1;stroke:none" />
    <path
       inkscape:connector-curvature="0"
       d="m 0.25980529,15.79419 4.77185621,-1.725488 0.039308,-0.03926 C 5.2736124,13.740202 4.8185731,12.902156 4.0081274,12.098526 3.1957395,11.29297 2.335449,10.831246 2.0489062,11.038953 Z"
       id="path3270"
       style="fill:url(#linearGradient8653);fill-opacity:1;fill-rule:evenodd;stroke:url(#linearGradient8655);stroke-width:0.48484433;stroke-linecap:butt;stroke-linejoin:miter;stroke-miterlimit:4;stroke-dasharray:none;stroke-opacity:1" />
    <path
       inkscape:connector-curvature="0"
       d="M 0.7444326,14.506276 0.25922075,15.788967 1.560593,15.315574 C 1.446907,15.182439 1.3413094,15.047739 1.2062351,14.913801 1.0507282,14.759602 0.89915498,14.633134 0.7444326,14.506276 Z"
       id="path3281"
       style="fill:#0c0c0c;fill-opacity:1;fill-rule:evenodd;stroke:#0c0c0c;stroke-width:0.48484433;stroke-linecap:butt;stroke-linejoin:miter;stroke-miterlimit:4;stroke-dasharray:none;stroke-opacity:1" />
  </g>
</svg>
