<?xml version="1.0" encoding="UTF-8" standalone="no"?>
<svg
   xmlns:dc="http://purl.org/dc/elements/1.1/"
   xmlns:cc="http://creativecommons.org/ns#"
   xmlns:rdf="http://www.w3.org/1999/02/22-rdf-syntax-ns#"
   xmlns:svg="http://www.w3.org/2000/svg"
   xmlns="http://www.w3.org/2000/svg"
   xmlns:sodipodi="http://sodipodi.sourceforge.net/DTD/sodipodi-0.dtd"
   xmlns:inkscape="http://www.inkscape.org/namespaces/inkscape"
   version="1.1"
   x="0px"
   y="0px"
   viewBox="0 0 100 100"
   enable-background="new 0 0 100 100"
   xml:space="preserve"
   id="svg10"
   sodipodi:docname="peak.svg"
   width="100"
   height="100"
   inkscape:version="0.92.3 (2405546, 2018-03-11)"><metadata
     id="metadata16"><rdf:RDF><cc:Work
         rdf:about=""><dc:format>image/svg+xml</dc:format><dc:type
           rdf:resource="http://purl.org/dc/dcmitype/StillImage" /><dc:title /></cc:Work></rdf:RDF></metadata><defs
     id="defs14" /><sodipodi:namedview
     pagecolor="#ffffff"
     bordercolor="#666666"
     borderopacity="1"
     objecttolerance="10"
     gridtolerance="10"
     guidetolerance="10"
     inkscape:pageopacity="0"
     inkscape:pageshadow="2"
     inkscape:window-width="1855"
     inkscape:window-height="1056"
     id="namedview12"
     showgrid="false"
     inkscape:zoom="4"
     inkscape:cx="12.869102"
     inkscape:cy="69.749161"
     inkscape:window-x="1985"
     inkscape:window-y="26"
     inkscape:window-maximized="1"
     inkscape:current-layer="svg10" /><path
     style="fill:#d80000;fill-opacity:0.88235294;stroke:none;stroke-width:1px;stroke-linecap:butt;stroke-linejoin:miter;stroke-opacity:1"
     d="m 23.834746,96.954449 c 0.564972,-0.423729 0.529661,-0.176554 0.529661,-0.529661 0,-0.04414 -0.03121,-0.101205 0,-0.132415 0.03121,-0.03121 0.101204,0.03121 0.132415,0 0.02707,-0.02707 -0.02625,-0.344744 0,-0.397246 0.02792,-0.05583 0.1045,-0.07658 0.132415,-0.132415 0.02625,-0.0525 -0.02707,-0.370175 0,-0.397246 0.03121,-0.03121 0.101205,0.03121 0.132416,0 0.06242,-0.06242 -0.06242,-0.202409 0,-0.26483 0.03121,-0.03121 0.101204,0.03121 0.132415,0 0.03121,-0.03121 -0.03121,-0.101205 0,-0.132416 0.06242,-0.06242 0.202409,0.06242 0.26483,0 0.03121,-0.03121 -0.03121,-0.101204 0,-0.132415 0.03121,-0.03121 0.101205,0.03121 0.132416,0 0.03121,-0.03121 -0.03121,-0.101205 0,-0.132415 0.03121,-0.03121 0.101204,0.03121 0.132415,0 0.08823,-0.08823 -0.08824,-0.176595 0,-0.264831 0.03121,-0.03121 0.101205,0.03121 0.132415,0 0.06621,-0.06621 -0.06621,-0.331038 0,-0.397245 0.03121,-0.03121 0.101205,0.03121 0.132415,0 0.06242,-0.06242 -0.06242,-0.20241 0,-0.264831 0.03121,-0.03121 0.101205,0.03121 0.132416,0 0.03121,-0.03121 -0.03121,-0.101205 0,-0.132415 0.03121,-0.03121 0.101204,0.03121 0.132415,0 0.03186,-0.03186 -0.03186,-0.497798 0,-0.529661 0.03121,-0.03121 0.101205,0.03121 0.132415,0 0.06621,-0.06621 -0.06621,-0.331038 0,-0.397246 0.03121,-0.03121 0.101205,0.03121 0.132415,0 0.03186,-0.03186 -0.03186,-0.497798 0,-0.529661 0.03121,-0.03121 0.101205,0.03121 0.132416,0 0.03186,-0.03186 -0.03186,-0.497798 0,-0.529661 0.03121,-0.03121 0.101204,0.03121 0.132415,0 0.03121,-0.03121 0,-0.08828 0,-0.132415 0,-0.09386 -0.01712,-0.760256 0,-0.794492 0.02792,-0.05583 0.1045,-0.07658 0.132415,-0.132415 0.04573,-0.09146 -0.04648,-0.615596 0,-0.662076 0.03121,-0.03121 0.101205,0.03121 0.132415,0 0.06621,-0.06621 -0.06621,-0.331038 0,-0.397246 0.03121,-0.03121 0.101205,0.03121 0.132416,0 0.06242,-0.06242 -0.03948,-0.185873 0,-0.264831 0.02792,-0.05583 0.104499,-0.07658 0.132415,-0.132415 0.02625,-0.0525 -0.02707,-0.370175 0,-0.397246 0.03121,-0.03121 0.101205,0.03121 0.132415,0 0.03186,-0.03186 -0.03186,-0.497797 0,-0.529661 0.03121,-0.03121 0.101205,0.03121 0.132415,0 0.06621,-0.06621 -0.06621,-0.331038 0,-0.397245 0.03121,-0.03121 0.101205,0.03121 0.132416,0 0.041,-0.041 -0.041,-0.621075 0,-0.662077 0.03121,-0.03121 0.101204,0.03121 0.132415,0 0.06242,-0.06242 -0.03948,-0.185873 0,-0.26483 0.02792,-0.05583 0.1045,-0.07658 0.132415,-0.132415 0.03948,-0.07896 -0.03948,-0.185874 0,-0.264831 0.02792,-0.05583 0.1045,-0.07658 0.132415,-0.132415 0.01712,-0.03424 0,-0.700636 0,-0.794492 v -0.132415 c 0,-0.04414 -0.03121,-0.101205 0,-0.132415 0.03121,-0.03121 0.101205,0.03121 0.132416,0 0.06242,-0.06242 -0.03948,-0.185874 0,-0.264831 0.02792,-0.05583 0.104499,-0.07658 0.132415,-0.132415 0.03948,-0.07896 -0.06242,-0.202409 0,-0.264831 0.03121,-0.03121 0.101205,0.03121 0.132415,0 0.06242,-0.06242 -0.06242,-0.202409 0,-0.26483 0.03121,-0.03121 0.101205,0.03121 0.132415,0 0.03186,-0.03186 -0.03186,-0.497798 0,-0.529661 0.03121,-0.03121 0.101205,0.03121 0.132416,0 0.03623,-0.03623 -0.03592,-0.457827 0,-0.529661 0.02792,-0.05583 0.104499,-0.07658 0.132415,-0.132415 0.01712,-0.03424 0,-0.700636 0,-0.794492 0,-0.04414 -0.03121,-0.101205 0,-0.132415 0.03121,-0.03121 0.101205,0.03121 0.132415,0 0.06242,-0.06242 -0.06242,-0.202409 0,-0.264831 0.03121,-0.03121 0.101205,0.03121 0.132415,0 0.03121,-0.03121 0,-0.08828 0,-0.132415 0,-0.0921 -0.02394,-0.61419 0,-0.662076 0.163626,-0.327252 0.132416,0.04571 0.132416,-0.264831 0,-0.03211 -0.0043,-0.392987 0,-0.397245 0.03121,-0.03121 0.101204,0.03121 0.132415,0 0.06242,-0.06242 -0.06242,-0.20241 0,-0.264831 0.03121,-0.03121 0.101205,0.03121 0.132415,0 0.06621,-0.06621 -0.06621,-0.331038 0,-0.397246 0.03121,-0.03121 0.101205,0.03121 0.132415,0 0.006,-0.006 0,-0.599642 0,-0.662076 0,-0.04414 -0.03121,-0.101205 0,-0.132415 0.03121,-0.03121 0.101205,0.03121 0.132416,0 0.03121,-0.03121 -0.03121,-0.101205 0,-0.132415 0.03121,-0.03121 0.101204,0.03121 0.132415,0 0.03186,-0.03186 -0.03186,-0.497798 0,-0.529661 0.03121,-0.03121 0.101205,0.03121 0.132415,0 0.03121,-0.03121 0,-0.08828 0,-0.132416 0,-0.06243 -0.006,-0.656075 0,-0.662076 0.03121,-0.03121 0.101205,0.03121 0.132415,0 0.04648,-0.04648 -0.04573,-0.570613 0,-0.662076 0.163626,-0.327252 0.132416,0.04571 0.132416,-0.264831 v -1.986229 -0.132415 c 0,-0.04414 -0.03121,-0.101205 0,-0.132415 0.03121,-0.03121 0.101204,0.03121 0.132415,0 0.04648,-0.04648 -0.04573,-0.570613 0,-0.662076 0.02792,-0.05583 0.1045,-0.07658 0.132415,-0.132416 0.01741,-0.03482 0,-0.460418 0,-0.529661 0,-0.04863 -0.0053,-0.524332 0,-0.529661 0.03121,-0.03121 0.101205,0.03121 0.132416,0 0.03121,-0.03121 0.03121,-0.101204 0,-0.132415 -0.03121,-0.03121 -0.132416,0.04414 -0.132416,0 0,-0.04414 0.101205,0.03121 0.132416,0 0.03121,-0.03121 0,-0.08828 0,-0.132415 v -0.132415 -1.456568 c 0,-0.04863 -0.0053,-0.524333 0,-0.529661 0.03121,-0.03121 0.101204,0.03121 0.132415,0 0.03121,-0.03121 0,-0.08828 0,-0.132415 0,-0.05964 0.02015,-0.356948 0,-0.397246 -0.02792,-0.05583 -0.1045,-0.07658 -0.132415,-0.132416 -0.01974,-0.03948 0,-0.08828 0,-0.132415 v -0.132415 -0.662076 -1.986229 c 0,-0.05963 -0.02015,-0.356947 0,-0.397246 0.02792,-0.05583 0.104499,-0.07658 0.132415,-0.132415 0.04177,-0.08354 -0.04177,-0.57854 0,-0.662076 0.02792,-0.05583 0.104499,-0.07658 0.132415,-0.132416 0.01741,-0.03482 0,-0.460418 0,-0.529661 V 63.71822 63.585805 c 0,-0.04414 -0.01974,-0.09294 0,-0.132415 0.02792,-0.05583 0.1045,-0.07658 0.132415,-0.132415 0.01741,-0.03482 0,-0.460419 0,-0.529661 v -1.324153 -0.662076 c 0,-0.04414 -0.03121,-0.101205 0,-0.132416 0.03121,-0.03121 0.101205,0.03121 0.132416,0 0.0053,-0.0053 0,-0.481033 0,-0.529661 v -3.04555 -0.662077 -0.132415 c 0,-0.04414 -0.01974,-0.09294 0,-0.132415 0.05383,-0.107669 0.210049,-0.109562 0.132415,-0.264831 -0.02792,-0.05583 -0.1045,-0.07658 -0.132415,-0.132415 -0.02015,-0.0403 0,-0.337612 0,-0.397246 v -0.926907 -0.794491 c 0,-0.05963 -0.02015,-0.356947 0,-0.397246 0.02792,-0.05583 0.104499,-0.07658 0.132415,-0.132415 0.02394,-0.04789 0,-0.569976 0,-0.662076 v -1.324153 c 0,-0.06924 -0.01741,-0.494843 0,-0.529661 0.02792,-0.05583 0.104499,-0.07658 0.132415,-0.132415 0.0056,-0.01129 0.0056,-0.518373 0,-0.529661 -0.02792,-0.05583 -0.1045,-0.07658 -0.132415,-0.132415 -0.0074,-0.01478 -0.0074,-0.647297 0,-0.662077 0.02792,-0.05583 0.104499,-0.07658 0.132415,-0.132415 0.02394,-0.04789 0,-0.569976 0,-0.662076 0,-0.0921 -0.02394,-0.614191 0,-0.662076 0.02792,-0.05583 0.1045,-0.07658 0.132415,-0.132416 0.02394,-0.04789 0,-0.569976 0,-0.662076 0,-0.04414 -0.03121,-0.101205 0,-0.132415 0.03121,-0.03121 0.101205,0.03121 0.132416,0 0.03121,-0.03121 0,-0.08828 0,-0.132416 v -0.794491 -0.662076 c 0,-0.04414 -0.03121,-0.101205 0,-0.132416 0.03121,-0.03121 0.101204,0.03121 0.132415,0 0.04648,-0.04648 -0.04573,-0.570612 0,-0.662076 0.02792,-0.05583 0.104499,-0.07658 0.132415,-0.132415 0.02015,-0.0403 0,-0.337612 0,-0.397246 v -0.794491 -0.132416 c 0,-0.04414 -0.03121,-0.101204 0,-0.132415 0.03121,-0.03121 0.101205,0.03121 0.132415,0 0.03121,-0.03121 0,-0.08828 0,-0.132415 V 42.53178 41.472458 40.413136 c 0,-0.04414 -0.03121,-0.101205 0,-0.132416 0.03121,-0.03121 0.101205,0.03121 0.132416,0 0.006,-0.006 0,-0.599642 0,-0.662076 v -3.972458 -1.853813 -0.132415 c 0,-0.04414 0.03121,-0.101205 0,-0.132416 -0.03121,-0.03121 -0.101205,0.03121 -0.132416,0 -0.03121,-0.03121 0,-0.08828 0,-0.132415 v -0.132415 -1.324153 -0.926907 c 0,-0.05963 -0.02015,-0.356947 0,-0.397245 0.02792,-0.05583 0.1045,-0.07658 0.132416,-0.132416 0.01974,-0.03948 0,-0.08828 0,-0.132415 v -0.132415 -1.986229 -0.132415 c 0,-0.04414 -0.03121,-0.101205 0,-0.132415 0.03121,-0.03121 0.101204,0.03121 0.132415,0 0.03121,-0.03121 0,-0.08828 0,-0.132416 v -0.132415 -1.059322 c 0,-0.04414 -0.03121,-0.101205 0,-0.132415 0.03121,-0.03121 0.101204,0.03121 0.132415,0 0.006,-0.006 0,-0.599643 0,-0.662076 V 24.65572 24.523305 c 0,-0.04414 -0.03121,-0.101205 0,-0.132415 0.03121,-0.03121 0.101205,0.03121 0.132415,0 0.041,-0.041 -0.041,-0.621075 0,-0.662077 0.03121,-0.03121 0.101205,0.03121 0.132416,0 0.006,-0.006 0,-0.599642 0,-0.662076 0,-0.04414 -0.03121,-0.101204 0,-0.132415 0.03121,-0.03121 0.101204,0.03121 0.132415,0 0.0053,-0.0053 0,-0.481033 0,-0.529661 v -0.132415 c 0,-0.04414 -0.03121,-0.101205 0,-0.132416 0.03121,-0.03121 0.101205,0.03121 0.132415,0 0.03121,-0.03121 0,-0.08828 0,-0.132415 v -0.794491 c 0,-0.04414 -0.03121,-0.101205 0,-0.132416 0.03121,-0.03121 0.101205,0.03121 0.132415,0 0.0043,-0.0043 0,-0.365131 0,-0.397245 v -2.383475 -1.059322 c 0,-0.06924 -0.01741,-0.494844 0,-0.529661 0.02792,-0.05583 0.1045,-0.07658 0.132416,-0.132415 0.01741,-0.03482 0,-0.460419 0,-0.529661 v -0.794492 c 0,-0.05963 -0.02015,-0.356947 0,-0.397246 0.02792,-0.05583 0.104499,-0.07658 0.132415,-0.132415 0.01712,-0.03424 0,-0.700635 0,-0.794491 0,-0.04414 -0.01974,-0.09294 0,-0.132416 0.02792,-0.05583 0.1045,-0.07658 0.132415,-0.132415 0.03592,-0.07183 -0.03623,-0.493429 0,-0.529661 0.03121,-0.03121 0.101205,0.03121 0.132415,0 0.06621,-0.06621 -0.06621,-0.331038 0,-0.397246 0.03121,-0.03121 0.101205,0.03121 0.132416,0 0.03186,-0.03186 -0.03186,-0.497797 0,-0.529661 0.03121,-0.03121 0.101204,0.03121 0.132415,0 0.041,-0.041 -0.041,-0.621074 0,-0.662076 0.03121,-0.03121 0.101205,0.03121 0.132415,0 0.06621,-0.06621 -0.06621,-0.331038 0,-0.397246 0.03121,-0.03121 0.101205,0.03121 0.132415,0 0.06621,-0.06621 -0.06621,-0.331038 0,-0.397245 0.03121,-0.03121 0.101205,0.03121 0.132416,0 0.0053,-0.0053 0,-0.481034 0,-0.529661 v -0.132416 c 0,-0.04414 -0.03121,-0.1012044 0,-0.132415 0.03121,-0.031211 0.101204,0.031211 0.132415,0 0.03121,-0.031211 0,-0.088277 0,-0.1324152 V 9.6927965 8.6334745 8.5010592 c 0,-0.044138 -0.03121,-0.1012047 0,-0.1324152 0.03121,-0.031211 0.101205,0.031211 0.132415,0 0.06621,-0.066208 -0.06621,-0.3310382 0,-0.3972458 0.03121,-0.031211 0.101205,0.031211 0.132415,0 0.006,-0.006 0,-0.5996428 0,-0.6620763 0,-0.044138 -0.03121,-0.1012046 0,-0.1324152 0.03121,-0.031211 0.101205,0.031211 0.132416,0 0.04648,-0.04648 -0.04573,-0.5706127 0,-0.6620763 0.02792,-0.055831 0.104499,-0.076584 0.132415,-0.1324152 0.03948,-0.078957 -0.06242,-0.2024094 0,-0.2648306 0.03121,-0.031211 0.101205,0.031211 0.132415,0 0.06242,-0.062421 -0.03948,-0.1858733 0,-0.2648305 0.02792,-0.055831 0.1045,-0.076584 0.132415,-0.1324152 0.01974,-0.039479 -0.03121,-0.1012047 0,-0.1324153 0.03121,-0.031211 0.101205,0.031211 0.132416,0 0.06621,-0.066208 -0.06621,-0.3310381 0,-0.3972457 0.03121,-0.031211 0.101204,0.031211 0.132415,0 0.06621,-0.066208 -0.06621,-0.3310382 0,-0.3972458 0.03121,-0.031211 0.101205,0.031211 0.132415,0 0.03121,-0.031211 -0.03121,-0.1012047 0,-0.1324153 0.06242,-0.062421 0.20241,0.062421 0.264831,0 0.03121,-0.03121 -0.03121,-0.1012046 0,-0.1324152 0.03121,-0.031211 0.101204,0.031211 0.132415,0 0.03121,-0.031211 -0.03121,-0.1012047 0,-0.1324153 0.03121,-0.031211 0.08828,0 0.132415,0 0.04414,0 0.101205,-0.031211 0.132415,0 0.03121,0.031211 -0.03121,0.1012047 0,0.1324153 0.06242,0.062421 0.20241,-0.062421 0.264831,0 0.03121,0.031211 -0.03121,0.1012047 0,0.1324152 0.03121,0.031211 0.101205,-0.03121 0.132415,0 0.03121,0.031211 -0.03121,0.1012047 0,0.1324153 0.03121,0.031211 0.101205,-0.031211 0.132415,0 0.03121,0.031211 -0.03121,0.1012047 0,0.1324153 0.03121,0.03121 0.09294,-0.019739 0.132416,0 0.05583,0.027915 0.07658,0.1044996 0.132415,0.1324152 0.03948,0.019739 0.101205,-0.031211 0.132415,0 0.03121,0.031211 -0.03121,0.1012047 0,0.1324153 0.03121,0.031211 0.101205,-0.031211 0.132415,0 0.03121,0.031211 -0.03121,0.1012046 0,0.1324152 0.06242,0.062421 0.20241,-0.062421 0.264831,0 0.03121,0.031211 -0.03121,0.1012047 0,0.1324153 0.06242,0.062421 0.202409,-0.062421 0.26483,0 0.03121,0.03121 -0.03121,0.1012047 0,0.1324152 0.03121,0.031211 0.101205,-0.031211 0.132416,0 0.03121,0.031211 -0.03121,0.1012047 0,0.1324153 0.03121,0.031211 0.101204,-0.031211 0.132415,0 0.06242,0.062421 -0.06242,0.2024093 0,0.2648305 0.03121,0.031211 0.101205,-0.031211 0.132415,0 0.06242,0.062421 -0.06242,0.2024094 0,0.2648305 0.03121,0.031211 0.101205,-0.031211 0.132416,0 0.06621,0.066208 -0.06621,0.3310381 0,0.3972458 0.03121,0.031211 0.101204,-0.031211 0.132415,0 0.06242,0.062421 -0.06242,0.2024093 0,0.2648305 0.03121,0.031211 0.101204,-0.031211 0.132415,0 0.03121,0.031211 -0.01974,0.092937 0,0.1324152 0.02792,0.055831 0.1045,0.076584 0.132415,0.1324153 0.03948,0.078957 -0.06242,0.2024093 0,0.2648305 0.03121,0.031211 0.101205,-0.031211 0.132416,0 0.03623,0.036232 -0.03592,0.4578274 0,0.529661 0.02792,0.055831 0.104499,0.076584 0.132415,0.1324153 0.02625,0.052501 -0.02707,0.3701752 0,0.3972457 0.03121,0.031211 0.101204,-0.031211 0.132415,0 0.041,0.041002 -0.041,0.6210743 0,0.6620763 0.03121,0.031211 0.101205,-0.031211 0.132415,0 0.06621,0.066208 -0.06621,0.3310381 0,0.3972458 0.03121,0.031211 0.101205,-0.031211 0.132416,0 0.06242,0.062421 -0.03948,0.1858733 0,0.2648305 0.02792,0.055831 0.104499,0.076584 0.132415,0.1324152 0.01974,0.039479 -0.03121,0.101205 0,0.132415 0.03121,0.03121 0.101204,-0.03121 0.132415,0 0.06242,0.06242 -0.06242,0.20241 0,0.264831 0.03121,0.03121 0.101205,-0.03121 0.132415,0 0.06242,0.06242 -0.06242,0.202409 0,0.26483 0.03121,0.03121 0.101205,-0.03121 0.132416,0 0.06242,0.06242 -0.06242,0.20241 0,0.264831 0.03121,0.03121 0.101204,-0.03121 0.132415,0 0.06242,0.06242 -0.06242,0.202409 0,0.26483 0.03121,0.03121 0.101205,-0.03121 0.132415,0 0.06242,0.06242 -0.06242,0.20241 0,0.264831 0.03121,0.03121 0.101205,-0.03121 0.132415,0 0.06621,0.06621 -0.06621,0.331038 0,0.397246 0.03121,0.03121 0.101205,-0.03121 0.132416,0 0.02707,0.02707 -0.02625,0.344744 0,0.397245 0.02792,0.05583 0.104499,0.07658 0.132415,0.132416 0.03592,0.07183 -0.03623,0.493429 0,0.529661 0.03121,0.03121 0.101205,-0.03121 0.132415,0 0.03121,0.03121 0,0.08828 0,0.132415 v 1.059322 0.132415 c 0,0.04414 -0.03121,0.101205 0,0.132415 0.03121,0.03121 0.101205,-0.03121 0.132415,0 0.0043,0.0043 0,0.365132 0,0.397246 v 1.986229 2.648305 c 0,0.03211 0.0043,0.392987 0,0.397246 -0.03121,0.03121 -0.101204,-0.03121 -0.132415,0 -0.03121,0.03121 0,0.08828 0,0.132415 0,0.09386 0.01712,0.760256 0,0.794492 -0.02792,0.05583 -0.1045,0.07658 -0.132415,0.132415 -0.01974,0.03948 0,0.08828 0,0.132415 v 0.132415 0.794492 0.132415 c 0,0.04414 0.03121,0.101205 0,0.132415 -0.03121,0.03121 -0.101205,-0.03121 -0.132415,0 -0.0053,0.0053 0,0.481034 0,0.529661 v 3.575212 c 0,0.06243 0.006,0.656075 0,0.662077 -0.03121,0.03121 -0.101205,-0.03121 -0.132416,0 -0.03121,0.03121 0,0.08828 0,0.132415 v 0.662076 5.164195 1.059322 0.132415 c 0,0.04414 -0.03121,0.101205 0,0.132416 0.03121,0.03121 0.101205,-0.03121 0.132416,0 0.03121,0.03121 0,0.08828 0,0.132415 v 0.132415 1.456568 c 0,0.04863 -0.0053,0.524332 0,0.529661 0.03121,0.03121 0.101204,-0.03121 0.132415,0 0.03121,0.03121 0,0.08828 0,0.132415 0,0.09386 -0.01712,0.760256 0,0.794492 0.02792,0.05583 0.1045,0.07658 0.132415,0.132415 0.01974,0.03948 0,0.08828 0,0.132415 v 0.132415 0.662077 1.986229 0.662076 0.132415 c 0,0.04414 -0.01974,0.09294 0,0.132415 0.02792,0.05583 0.1045,0.07658 0.132415,0.132416 0.01974,0.03948 0,0.08828 0,0.132415 v 0.132415 0.662076 0.132416 c 0,0.04414 -0.03121,0.101204 0,0.132415 0.03121,0.03121 0.101205,-0.03121 0.132416,0 0.03121,0.03121 0,0.08828 0,0.132415 v 0.132415 0.794492 c 0,0.04414 -0.03121,0.101205 0,0.132415 0.03121,0.03121 0.101204,-0.03121 0.132415,0 0.03121,0.03121 0,0.08828 0,0.132415 v 0.132416 0.662076 0.132415 c 0,0.04414 -0.01974,0.09294 0,0.132415 0.02792,0.05583 0.1045,0.07659 0.132415,0.132416 0.01974,0.03948 0,0.08828 0,0.132415 0,0.09386 -0.01712,0.760255 0,0.794491 0.02792,0.05583 0.1045,0.07659 0.132415,0.132416 0.01974,0.03948 0,0.08828 0,0.132415 v 0.662076 0.132416 c 0,0.04414 -0.01974,0.09294 0,0.132415 0.02792,0.05583 0.1045,0.07658 0.132416,0.132415 0.01712,0.03424 0,0.700635 0,0.794492 v 0.132415 c 0,0.04414 -0.03121,0.101204 0,0.132415 0.03121,0.03121 0.101204,-0.03121 0.132415,0 0.03121,0.03121 0,0.08828 0,0.132415 v 0.132416 c 0,0.09386 -0.01712,0.760255 0,0.794491 0.02792,0.05583 0.1045,0.07658 0.132415,0.132415 0.01712,0.03424 0,0.700636 0,0.794492 v 0.132415 c 0,0.04414 -0.03121,0.101205 0,0.132415 0.03121,0.03121 0.101205,-0.03121 0.132415,0 0.03121,0.03121 0,0.08828 0,0.132416 v 0.132415 1.191737 0.662076 0.132416 c 0,0.04414 -0.01974,0.09294 0,0.132415 0.02792,0.05583 0.1045,0.07658 0.132416,0.132415 0.02015,0.0403 0,0.337612 0,0.397246 v 0.794491 c 0,0.05964 -0.02015,0.356948 0,0.397246 0.02792,0.05583 0.104499,0.07658 0.132415,0.132416 0.04573,0.09146 -0.04648,0.615595 0,0.662076 0.03121,0.03121 0.101205,-0.03121 0.132415,0 0.04648,0.04648 -0.04573,0.570612 0,0.662076 0.02792,0.05583 0.1045,0.07658 0.132415,0.132415 0.03592,0.07183 -0.03623,0.49343 0,0.529661 0.03121,0.03121 0.101205,-0.03121 0.132416,0 0.03623,0.03623 -0.03592,0.457828 0,0.529661 0.02792,0.05583 0.104499,0.07658 0.132415,0.132416 0.01974,0.03948 0,0.08828 0,0.132415 v 0.132415 0.662076 c 0,0.04863 -0.0053,0.524333 0,0.529661 0.03121,0.03121 0.101205,-0.03121 0.132415,0 0.03121,0.03121 0,0.08828 0,0.132416 v 0.132415 1.721398 4.766949 c 0,0.03211 -0.0043,0.392988 0,0.397246 0.03121,0.03121 0.101205,-0.03121 0.132415,0 0.03121,0.03121 0,0.08828 0,0.132415 v 0.794492 1.853813 0.132416 c 0,0.04414 -0.03121,0.101204 0,0.132415 0.03121,0.03121 0.101205,-0.03121 0.132416,0 0.0043,0.0043 0,0.365132 0,0.397246 v 2.383474 2.648305 1.191738 0.132415 c 0,0.04414 -0.03121,0.101205 0,0.132415 0.03121,0.03121 0.101204,-0.03121 0.132415,0 0.03121,0.03121 0,0.08828 0,0.132415 v 0.662077 c 0,0.04414 -0.03121,0.101204 0,0.132415 0.03121,0.03121 0.101205,-0.03121 0.132415,0 0.03121,0.03121 0,0.08828 0,0.132415 v 0.662077 c 0,0.04414 -0.03121,0.101204 0,0.132415 0.03121,0.03121 0.101205,-0.03121 0.132415,0 0.0053,0.0053 0,0.481033 0,0.529661 0,0.03211 -0.0043,0.392987 0,0.397246 0.03121,0.03121 0.101205,-0.03121 0.132416,0 0.03623,0.03623 -0.03592,0.457827 0,0.529661 0.02792,0.05583 0.104499,0.07658 0.132415,0.132415 0.05297,0.105932 -0.05297,0.291313 0,0.397246 0.02792,0.05583 0.1045,0.07658 0.132415,0.132415 0.04573,0.09146 -0.04648,0.615596 0,0.662076 0.03121,0.03121 0.101205,-0.03121 0.132415,0 0.041,0.041 -0.041,0.621074 0,0.662076 0.03121,0.03121 0.101205,-0.03121 0.132416,0 0.06621,0.06621 -0.06621,0.331039 0,0.397246 0.03121,0.03121 0.101204,-0.03121 0.132415,0 0.02707,0.02707 -0.02625,0.344744 0,0.397246 0.02792,0.05583 0.1045,0.07658 0.132415,0.132415 0.02625,0.0525 -0.02707,0.370175 0,0.397246 0.03121,0.03121 0.101205,-0.03121 0.132415,0 0.03623,0.03623 -0.03592,0.457827 0,0.529661 0.02792,0.05583 0.1045,0.07658 0.132416,0.132415 0.02394,0.04789 0,0.569976 0,0.662076 0,0.04414 -0.03121,0.101205 0,0.132416 0.03121,0.03121 0.101204,-0.03121 0.132415,0 0.041,0.041 -0.041,0.621074 0,0.662076 0.03121,0.03121 0.101205,-0.03121 0.132415,0 0.03186,0.03186 -0.03186,0.497798 0,0.529661 0.03121,0.03121 0.101205,-0.03121 0.132415,0 0.03186,0.03186 -0.03186,0.497798 0,0.529661 0.03121,0.03121 0.101205,-0.03121 0.132416,0 0.02707,0.02707 -0.02625,0.344744 0,0.397246 0.02792,0.05583 0.104499,0.07658 0.132415,0.132415 0.03948,0.07896 -0.03948,0.185873 0,0.264831 0.02792,0.05583 0.1045,0.07658 0.132415,0.132415 0.05297,0.105932 -0.05297,0.291313 0,0.397246 0.163626,0.327251 0.132416,-0.04571 0.132416,0.26483 v 0.132415 c 0,0.04414 -0.01974,0.09294 0,0.132416 0.02792,0.05583 0.104499,0.07658 0.132415,0.132415 0.02625,0.0525 -0.02707,0.370175 0,0.397246 0.03121,0.03121 0.101204,-0.03121 0.132415,0 0.03121,0.03121 0,0.08828 0,0.132415 0,0.0921 -0.02394,0.61419 0,0.662076 0.02792,0.05583 0.1045,0.07658 0.132415,0.132415 0.02625,0.0525 -0.02707,0.370176 0,0.397246 0.03121,0.03121 0.101205,-0.03121 0.132416,0 0.06621,0.06621 -0.06621,0.331038 0,0.397246 0.03121,0.03121 0.101204,-0.03121 0.132415,0 0.06621,0.06621 -0.06621,0.331038 0,0.397246 0.03121,0.03121 0.101204,-0.03121 0.132415,0 0.06621,0.06621 -0.06621,0.331038 0,0.397245 0.03121,0.03121 0.101205,-0.03121 0.132415,0 0.06242,0.06242 -0.06242,0.20241 0,0.264831 0.03121,0.03121 0.101205,-0.03121 0.132416,0 0.06242,0.06242 -0.06242,0.202409 0,0.26483 0.03121,0.03121 0.101204,-0.03121 0.132415,0 0.06621,0.06621 -0.06621,0.331039 0,0.397246 0.03121,0.03121 0.101204,-0.03121 0.132415,0 0.06621,0.06621 -0.06621,0.331038 0,0.397246 0.03121,0.03121 0.101205,-0.03121 0.132415,0 0.06242,0.06242 -0.06242,0.202409 0,0.264831 0.03121,0.03121 0.101205,-0.03121 0.132416,0 0.06621,0.06621 -0.06621,0.331038 0,0.397245 0.03121,0.03121 0.101204,-0.03121 0.132415,0 0.06242,0.06242 -0.06242,0.20241 0,0.264831 0.03121,0.03121 0.101204,-0.03121 0.132415,0 0.03121,0.03121 -0.03121,0.101204 0,0.132415 0.03121,0.03121 0.101205,-0.03121 0.132415,0 0.06242,0.06242 -0.06242,0.202409 0,0.264831 0.03121,0.03121 0.101205,-0.03121 0.132416,0 0.03121,0.03121 -0.01974,0.09294 0,0.132415 0.02792,0.05583 0.104499,0.07658 0.132415,0.132415 0.01974,0.03948 -0.03121,0.101205 0,0.132415 0.03121,0.03121 0.101205,-0.03121 0.132415,0 0.06242,0.06242 -0.06242,0.20241 0,0.264831 0.03121,0.03121 0.101205,-0.03121 0.132415,0 0.06242,0.06242 -0.06242,0.202409 0,0.26483 0.03121,0.03121 0.101205,-0.03121 0.132416,0 0.06242,0.06242 -0.06242,0.20241 0,0.264831 0.03121,0.03121 0.101204,-0.03121 0.132415,0 0.06621,0.06621 -0.06621,0.331038 0,0.397246 0.03121,0.03121 0.101205,-0.03121 0.132415,0 0.06242,0.06242 -0.06242,0.202409 0,0.26483 0.03121,0.03121 0.101205,-0.03121 0.132415,0 0.06242,0.06242 -0.03948,0.185873 0,0.264831 0.02792,0.05583 0.1045,0.07658 0.132416,0.132415 0.01974,0.03948 -0.03121,0.101205 0,0.132415 0.03121,0.03121 0.101204,-0.03121 0.132415,0 0.06242,0.06242 -0.06242,0.202409 0,0.264831 0.03121,0.03121 0.101205,-0.03121 0.132415,0 0.06242,0.06242 -0.06242,0.202409 0,0.26483 0.03121,0.03121 0.101205,-0.03121 0.132415,0 0.03121,0.03121 -0.03121,0.101205 0,0.132415 0.03121,0.03121 0.101205,-0.03121 0.132416,0 0.03121,0.03121 0.04414,0.132416 0,0.132416 -0.04414,0 0.03121,-0.101205 0,-0.132416 -0.0043,-0.0043 2.310094,2.527588 2.27798,2.527588 -10.595081,0.0096 -20.5953,0.01314 -30.946442,0.0068 0.07436,-0.232129 4.114863,-1.702053 4.039224,-1.739868 -0.03121,-0.03121 0.03121,-0.101205 0,-0.132415 -0.06242,-0.06242 -0.182867,0.03279 -0.26483,0 -0.183275,-0.07331 -0.353108,-0.176554 -0.529661,-0.264831 z"
     id="path872"
     inkscape:connector-curvature="0"
     sodipodi:nodetypes="csscccccccccccsccscsccsccscsccccsccsscccccscsccccccccsssccccscsccccssscsscscccscssscsccsscscscsscccscccscscsccsccsccsccccscsccscsccsccscccscsccssccccccsccsscscsccccscscssccsccsccsccsccsccsccsscscsscscsssccsccsscssscsscsccssccscccscccccscsccssccsccsccccscscccccccccccscscccsscccccscccscscccsccccccccccccccccccccccccccsccscccccscscccccsscsssscsccsccsccsssssccscccsccscsccsccsccccsccsccsccscsscsccsccsccscsccssccssccssssscccsccsscccsccccccscscssccscssccsccscccsscsscssscssccccccsscccccccsccscccscscccccccssccccsccsccccccscccccccscccccccsccccsscscccccscsccsccscsscsccccscc" /><g
     id="g4"
     transform="translate(0,1)"><path
       d="M 94.457,98.097 H 82.3 C 71.368,98.097 69.962,78.239 68.832,62.282 68.431,56.624 67.942,49.72 67.01,47.616 66.007,49.751 65.49,57.139 65.104,62.675 64,78.456 62.627,98.097 51.774,98.097 42.039,98.097 40.445,73.205 39.256,38.04 38.811,24.857 38.263,8.646 36.516,5.229 34.767,8.647 34.218,24.864 33.771,38.053 32.581,73.211 30.986,98.096 21.257,98.096 H 6.555 v -3.193 h 14.704 c 7.393,0 8.601,-35.655 9.322,-56.958 0.929,-27.434 1.594,-36.302 5.936,-36.302 4.34,0 5.005,8.865 5.932,36.288 0.72,21.309 1.925,56.972 9.326,56.972 7.875,0 9.24,-19.529 10.144,-32.452 0.83,-11.883 1.288,-18.428 5.125,-18.428 3.697,0 4.151,6.405 4.975,18.032 0.926,13.081 2.326,32.848 10.282,32.848 h 12.157 v 3.194 z"
       id="path2"
       inkscape:connector-curvature="0"
       style="fill:#000000" /></g></svg>